<svg width="19" height="19" viewBox="0 0 19 19" fill="none" xmlns="http://www.w3.org/2000/svg">
<path fill-rule="evenodd" clip-rule="evenodd" d="M9.70986 0C4.5604 0 0.417603 4.11672 0.417603 9.23377C0.417603 13.312 3.08913 16.7747 6.76731 18.0058C7.23193 18.0828 7.3868 17.8135 7.3868 17.5442C7.3868 17.3133 7.3868 16.7362 7.3868 15.9667C4.79271 16.5438 4.25066 14.7356 4.25066 14.7356C3.82477 13.6583 3.20528 13.389 3.20528 13.389C2.35349 12.8119 3.28272 12.8119 3.28272 12.8119C4.21194 12.8888 4.71527 13.7737 4.71527 13.7737C5.52835 15.1972 6.88347 14.774 7.42552 14.5432C7.50295 13.9276 7.73526 13.5429 8.00628 13.312C5.95424 13.0812 3.78605 12.2732 3.78605 8.7336C3.78605 7.73328 4.13451 6.88685 4.75399 6.27127C4.67656 6.04042 4.3281 5.11704 4.83143 3.80893C4.83143 3.80893 5.60578 3.57808 7.3868 4.77078C8.12244 4.57841 8.93551 4.46299 9.70986 4.46299C10.4842 4.46299 11.2973 4.57841 12.0329 4.77078C13.8139 3.57808 14.5883 3.80893 14.5883 3.80893C15.0916 5.07857 14.7819 6.00195 14.6657 6.27127C15.2465 6.92532 15.6337 7.73328 15.6337 8.7336C15.6337 12.2732 13.4655 13.0427 11.3747 13.2735C11.7232 13.5429 11.9942 14.12 11.9942 14.9664C11.9942 16.1976 11.9942 17.1979 11.9942 17.5057C11.9942 17.7365 12.1491 18.0443 12.6524 17.9674C16.3306 16.7747 19.0021 13.312 19.0021 9.23377C19.0021 4.11672 14.8593 0 9.70986 0Z" fill="#27272A"/>
</svg>
