<svg width="21" height="22" viewBox="0 0 21 22" fill="none" xmlns="http://www.w3.org/2000/svg">
<circle cx="10.443" cy="11.1574" r="10.2861" fill="#FABB18"/>
<path d="M11.4427 6.66624C11.3942 6.42864 11.1852 6.25806 10.9427 6.25806H7.27927C6.99748 6.25806 6.76904 6.48649 6.76904 6.76828V14.4216C6.76904 14.7034 6.99748 14.9319 7.27927 14.9319C7.56105 14.9319 7.78949 14.7034 7.78949 14.4216V11.3603H10.6467L10.7692 11.9726C10.8155 12.2115 11.0259 12.3832 11.2692 12.3807H13.9122C14.194 12.3807 14.4224 12.1523 14.4224 11.8705V7.78873C14.4224 7.50694 14.194 7.2785 13.9122 7.2785H11.5651L11.4427 6.66624Z" fill="white"/>
</svg>
