<svg width="158" height="37" viewBox="0 0 158 37" fill="none" xmlns="http://www.w3.org/2000/svg">
<path d="M18.9061 28.448C18.1701 29.5827 17.8021 30.3187 17.8021 30.656C17.8021 31.024 17.9401 31.2693 18.2161 31.392C18.2161 31.4533 17.9554 31.6373 17.4341 31.944C16.9434 32.2813 16.2534 32.45 15.3641 32.45C14.4747 32.45 14.0301 32.22 14.0301 31.76C14.0301 30.9627 15.5327 28.3253 18.5381 23.848C21.5741 19.34 23.5674 16.2273 24.5181 14.51C26.6034 10.7687 27.6461 7.80933 27.6461 5.632C27.6461 4.77333 27.4774 3.976 27.1401 3.24C26.6187 2.136 25.3614 1.584 23.3681 1.584C19.7187 1.584 15.8394 3.25533 11.7301 6.598C8.60206 9.174 6.19473 11.842 4.50806 14.602C2.97473 17.2087 2.20806 19.5393 2.20806 21.594C2.20806 24.538 3.57273 26.0407 6.30206 26.102C6.42473 26.102 6.5474 26.102 6.67006 26.102C10.2887 26.102 13.0334 24.8293 14.9041 22.284C15.6401 21.272 16.0081 20.4133 16.0081 19.708C16.0081 19.0027 15.8394 18.558 15.5021 18.374C15.4714 18.3433 15.4561 18.282 15.4561 18.19C15.4561 18.098 15.5481 18.052 15.7321 18.052C16.5294 18.052 16.9281 18.5733 16.9281 19.616C16.9281 20.26 16.6214 21.134 16.0081 22.238C15.3947 23.342 14.2754 24.3847 12.6501 25.366C11.0554 26.3473 9.23073 26.838 7.17606 26.838C5.1214 26.838 3.49606 26.24 2.30006 25.044C1.10406 23.848 0.506063 22.238 0.506063 20.214C0.506063 15.43 3.7874 10.4007 10.3501 5.126C12.0061 3.80733 14.1527 2.70333 16.7901 1.814C19.4581 0.924666 21.8654 0.48 24.0121 0.48C26.1894 0.48 27.7227 0.893999 28.6121 1.722C29.5014 2.51933 29.9461 3.63867 29.9461 5.08C29.9461 8.576 27.8301 13.5287 23.5981 19.938C24.5487 18.742 26.0974 17.224 28.2441 15.384C35.8801 8.97467 42.4427 4.758 47.9321 2.734C48.2081 2.61133 48.5147 2.55 48.8521 2.55C50.0174 2.55 50.7534 3.20933 51.0601 4.528C51.2134 5.04933 50.4774 6.138 48.8521 7.794C45.0187 11.7193 41.7681 16.0127 39.1001 20.674C36.4321 25.3353 35.0981 28.678 35.0981 30.702C35.0981 31.1927 35.1901 31.53 35.3741 31.714C35.5581 31.9287 35.8494 31.99 36.2481 31.898C36.6467 31.8367 37.4747 31.53 38.7321 30.978C40.0201 30.426 40.8634 30.104 41.2621 30.012C41.4154 30.0733 41.4921 30.15 41.4921 30.242C41.4921 30.702 40.6794 31.346 39.0541 32.174C37.4594 33.002 36.2634 33.416 35.4661 33.416C34.6687 33.416 34.1627 33.278 33.9481 33.002C33.3961 32.2353 33.1201 31.2693 33.1201 30.104C33.1201 27.4667 34.5307 23.6793 37.3521 18.742C39.1614 15.6447 41.9521 11.474 45.7241 6.23C41.6454 6.598 36.3707 9.818 29.9001 15.89C24.7481 20.766 21.0834 24.952 18.9061 28.448ZM58.2731 15.246L58.9171 15.108C59.2544 15.108 59.5764 15.246 59.8831 15.522C60.1897 15.798 60.3431 16.0127 60.3431 16.166C60.3431 16.3193 59.3924 17.8067 57.4911 20.628C55.5897 23.4187 54.6391 25.366 54.6391 26.47C54.6391 26.562 54.6544 26.654 54.6851 26.746C54.8384 27.4513 55.1757 27.804 55.6971 27.804C57.2917 27.804 60.2051 25.1667 64.4371 19.892C64.5291 19.7693 64.6364 19.708 64.7591 19.708C64.8817 19.708 64.9431 19.8307 64.9431 20.076C64.9431 20.2907 64.8051 20.582 64.5291 20.95C60.6037 26.194 57.6137 28.816 55.5591 28.816C55.2831 28.816 55.0224 28.77 54.7771 28.678C53.4277 28.1567 52.7531 27.1447 52.7531 25.642C52.7531 25.1207 52.8144 24.5993 52.9371 24.078L50.0851 26.838C48.2757 28.4327 46.9571 29.23 46.1291 29.23C45.3317 29.23 44.5651 28.9693 43.8291 28.448C43.0011 27.8347 42.5871 27.022 42.5871 26.01C42.5871 23.7713 44.1511 21.1033 47.2791 18.006C50.4071 14.878 53.2744 13.314 55.8811 13.314C56.8931 13.314 57.5677 13.6667 57.9051 14.372C57.9971 14.6173 58.0737 14.832 58.1351 15.016C58.1964 15.1693 58.2424 15.246 58.2731 15.246ZM44.5191 26.562C44.5191 27.666 44.9024 28.218 45.6691 28.218C47.4477 28.218 49.8704 26.2707 52.9371 22.376L57.8131 15.66C57.5677 15.2307 57.1691 15.016 56.6171 15.016C54.7464 15.016 52.2624 16.4727 49.1651 19.386C46.0677 22.2687 44.5191 24.6607 44.5191 26.562ZM73.9181 14.188L80.5421 14.096C80.6341 14.1573 80.6801 14.2033 80.6801 14.234C80.6801 14.51 78.7634 14.8933 74.9301 15.384C71.1274 15.8747 69.0728 16.166 68.7661 16.258C68.1834 16.7793 67.1101 18.3433 65.5461 20.95C63.9821 23.526 63.2001 25.412 63.2001 26.608C63.2001 27.7427 63.9821 28.31 65.5461 28.31C66.2821 28.31 67.2481 28.08 68.4441 27.62C69.6401 27.16 70.5601 26.7307 71.2041 26.332C72.9214 25.2587 74.7614 23.6793 76.7241 21.594C77.1534 21.1647 77.4448 20.95 77.5981 20.95C77.6901 20.95 77.7361 21.042 77.7361 21.226C77.7361 21.41 77.5061 21.778 77.0461 22.33C75.4514 24.2927 73.6574 25.872 71.6641 27.068C69.2721 28.54 66.9874 29.276 64.8101 29.276C63.8594 29.276 63.0774 29.0767 62.4641 28.678C61.8814 28.2487 61.5901 27.4053 61.5901 26.148C61.5901 24.8907 62.1421 23.1733 63.2461 20.996C64.3501 18.788 65.1934 17.1473 65.7761 16.074C65.3468 16.166 64.9788 16.212 64.6721 16.212C63.7828 16.212 63.3381 15.8593 63.3381 15.154C63.3381 14.6327 63.7061 14.2647 64.4421 14.05C64.5341 14.05 64.6721 14.0347 64.8561 14.004H67.5241C68.0761 13.2987 68.7048 12.486 69.4101 11.566C70.2688 10.462 70.8514 9.91 71.1581 9.91C71.4648 9.91 71.8481 10.0327 72.3081 10.278C72.7681 10.5233 72.9981 10.8147 72.9981 11.152C72.9981 11.4893 72.2621 12.486 70.7901 14.142C71.5874 14.1727 72.6301 14.188 73.9181 14.188ZM84.9524 29.23C82.6524 29.23 81.5024 27.9573 81.5024 25.412C81.5024 24.124 81.8397 22.7133 82.5144 21.18C83.189 19.6467 83.925 18.3587 84.7224 17.316C84.569 17.3467 84.3697 17.362 84.1244 17.362C83.3884 17.362 82.775 16.8407 82.2844 15.798L78.8804 20.214C76.979 22.5753 75.875 23.756 75.5684 23.756C75.415 23.756 75.3384 23.6947 75.3384 23.572C75.3384 23.2653 75.599 22.8207 76.1204 22.238C78.7884 19.1407 80.6744 16.5187 81.7784 14.372C82.4837 11.704 83.373 10.37 84.4464 10.37C85.1517 10.37 85.5044 10.6767 85.5044 11.29C85.5044 11.9033 85.121 12.6853 84.3544 13.636L83.2504 15.108C83.2504 15.752 83.7257 16.074 84.6764 16.074C85.2284 16.074 85.8417 15.8747 86.5164 15.476L87.7124 14.74C87.7737 14.7093 87.927 14.694 88.1724 14.694C88.4177 14.694 88.6784 14.8473 88.9544 15.154C89.2304 15.4607 89.3224 15.7367 89.2304 15.982L86.0564 19.984C84.0937 22.4987 83.1124 24.492 83.1124 25.964C83.1124 27.4053 83.787 28.126 85.1364 28.126C86.547 28.126 88.2797 27.3747 90.3344 25.872C91.561 24.9827 92.6804 23.986 93.6924 22.882C94.643 21.778 95.1644 21.226 95.2564 21.226C95.471 21.226 95.5784 21.3487 95.5784 21.594C95.5784 21.8087 95.4404 22.0693 95.1644 22.376L93.6924 24.032C92.8644 24.8907 91.9444 25.7187 90.9324 26.516C88.5097 28.3253 86.5164 29.23 84.9524 29.23ZM105.678 19.248C105.678 20.3213 104.651 22.1153 102.596 24.63C100.173 27.6047 98.1032 29.092 96.3859 29.092H95.6499C94.8525 29.092 94.2239 28.678 93.7639 27.85C93.3959 27.2673 93.2119 26.6233 93.2119 25.918C93.2119 24.078 94.5459 21.502 97.2139 18.19C99.9125 14.8473 102.09 13.176 103.746 13.176C105.31 13.176 106.092 14.004 106.092 15.66C106.092 16.0893 106.015 16.6413 105.862 17.316C105.893 17.408 106.184 17.454 106.736 17.454C107.288 17.454 108.131 17.1627 109.266 16.58C109.235 17.1013 108.024 17.8527 105.632 18.834C105.663 18.9567 105.678 19.0947 105.678 19.248ZM102.688 16.856C101.645 16.856 100.158 18.0827 98.2259 20.536C96.3245 22.9893 95.3739 24.7987 95.3739 25.964C95.3739 27.1293 95.7419 27.712 96.4779 27.712C97.7965 27.712 99.4679 26.516 101.492 24.124C103.516 21.732 104.528 20.0147 104.528 18.972C104.037 18.696 103.424 17.9907 102.688 16.856ZM128.597 28.448C126.512 28.448 125.469 27.482 125.469 25.55C125.469 24.446 125.96 22.9433 126.941 21.042C127.923 19.11 128.95 17.4847 130.023 16.166C128.122 17.086 125.929 18.7573 123.445 21.18C120.961 23.572 119.229 26.0867 118.247 28.724C118.094 28.9693 117.833 29.092 117.465 29.092C116.729 29.092 116.361 28.678 116.361 27.85C116.668 26.1633 117.358 24.2313 118.431 22.054C118.769 21.3487 119.765 19.294 121.421 15.89C119.029 17.454 116.99 19.1407 115.303 20.95C113.647 22.7287 112.099 24.5227 110.657 26.332C109.247 28.1413 108.449 29.046 108.265 29.046C107.867 29.046 107.514 28.862 107.207 28.494C106.931 28.126 106.793 27.758 106.793 27.39C106.793 26.838 107.591 24.814 109.185 21.318L106.425 24.216C105.751 24.8907 105.337 25.228 105.183 25.228C104.999 25.228 104.907 25.136 104.907 24.952C104.907 24.7373 105.03 24.5073 105.275 24.262C106.41 23.1273 107.422 21.9927 108.311 20.858C109.201 19.7233 110.673 17.6993 112.727 14.786C113.065 14.326 113.54 14.096 114.153 14.096C114.767 14.096 115.073 14.3873 115.073 14.97C115.073 15.1847 114.261 16.6873 112.635 19.478C111.01 22.238 110.105 23.9707 109.921 24.676C111.179 23.296 113.065 21.4407 115.579 19.11C119.351 15.614 121.835 13.866 123.031 13.866C123.399 13.866 123.737 13.9733 124.043 14.188C124.35 14.4027 124.503 14.648 124.503 14.924C124.503 15.1693 123.905 16.3193 122.709 18.374C121.544 20.49 120.9 21.7473 120.777 22.146C124.181 19.294 125.883 17.8527 125.883 17.822C128.766 15.5833 130.836 14.464 132.093 14.464C132.461 14.464 132.799 14.5867 133.105 14.832C133.443 15.0467 133.611 15.3073 133.611 15.614C133.611 15.6753 132.615 16.9787 130.621 19.524C128.628 22.0387 127.509 24.1087 127.263 25.734C127.202 26.286 127.309 26.7 127.585 26.976C127.861 27.252 128.352 27.39 129.057 27.39C129.793 27.39 130.851 26.8993 132.231 25.918C133.642 24.906 135.068 23.5567 136.509 21.87C137.061 21.2567 137.429 20.95 137.613 20.95C137.828 20.95 137.935 21.0267 137.935 21.18C137.935 21.3947 137.797 21.64 137.521 21.916C136.019 23.7253 134.393 25.274 132.645 26.562C130.928 27.8193 129.579 28.448 128.597 28.448ZM150.947 15.246L151.591 15.108C151.928 15.108 152.25 15.246 152.557 15.522C152.864 15.798 153.017 16.0127 153.017 16.166C153.017 16.3193 152.066 17.8067 150.165 20.628C148.264 23.4187 147.313 25.366 147.313 26.47C147.313 26.562 147.328 26.654 147.359 26.746C147.512 27.4513 147.85 27.804 148.371 27.804C149.966 27.804 152.879 25.1667 157.111 19.892C157.203 19.7693 157.31 19.708 157.433 19.708C157.556 19.708 157.617 19.8307 157.617 20.076C157.617 20.2907 157.479 20.582 157.203 20.95C153.278 26.194 150.288 28.816 148.233 28.816C147.957 28.816 147.696 28.77 147.451 28.678C146.102 28.1567 145.427 27.1447 145.427 25.642C145.427 25.1207 145.488 24.5993 145.611 24.078L142.759 26.838C140.95 28.4327 139.631 29.23 138.803 29.23C138.006 29.23 137.239 28.9693 136.503 28.448C135.675 27.8347 135.261 27.022 135.261 26.01C135.261 23.7713 136.825 21.1033 139.953 18.006C143.081 14.878 145.948 13.314 148.555 13.314C149.567 13.314 150.242 13.6667 150.579 14.372C150.671 14.6173 150.748 14.832 150.809 15.016C150.87 15.1693 150.916 15.246 150.947 15.246ZM137.193 26.562C137.193 27.666 137.576 28.218 138.343 28.218C140.122 28.218 142.544 26.2707 145.611 22.376L150.487 15.66C150.242 15.2307 149.843 15.016 149.291 15.016C147.42 15.016 144.936 16.4727 141.839 19.386C138.742 22.2687 137.193 24.6607 137.193 26.562Z" fill="#E4E4E7"/>
</svg>
