<svg width="281" height="197" viewBox="0 0 281 197" fill="none" xmlns="http://www.w3.org/2000/svg">
<rect x="16.1729" y="0.113281" width="265.428" height="185.559" rx="6.67675" transform="rotate(5 16.1729 0.113281)" fill="white"/>
<rect x="53.957" y="68.4702" width="204.413" height="0.295901" rx="0.147951" transform="rotate(5 53.957 68.4702)" fill="#DAE8EF"/>
<rect x="52.3711" y="86.5986" width="204.413" height="0.295901" rx="0.147951" transform="rotate(5 52.3711 86.5986)" fill="#DAE8EF"/>
<rect x="50.7851" y="104.728" width="204.413" height="0.295901" rx="0.147951" transform="rotate(5 50.7851 104.728)" fill="#DAE8EF"/>
<rect x="49.1986" y="122.856" width="204.413" height="0.295901" rx="0.147951" transform="rotate(5 49.1986 122.856)" fill="#DAE8EF"/>
<rect x="47.6127" y="140.985" width="204.413" height="0.295901" rx="0.147951" transform="rotate(5 47.6127 140.985)" fill="#DAE8EF"/>
<rect x="46.0267" y="159.113" width="204.413" height="0.295901" rx="0.147951" transform="rotate(5 46.0267 159.113)" fill="#DAE8EF"/>
<path d="M55.7554 160.114L77.6862 143.839L96.6211 133.054C97.3273 132.652 98.1011 132.382 98.9043 132.258L115.832 129.637C117.378 129.398 118.958 129.709 120.298 130.516L135.313 139.56C136.03 139.992 136.822 140.285 137.648 140.424L154.356 143.241C155.777 143.48 157.238 143.254 158.519 142.595L174.81 134.218L195.176 127.111C196.324 126.711 197.34 126.005 198.116 125.069L218.352 100.667C219.064 99.8088 219.979 99.1425 221.014 98.7288L242.306 90.2213" stroke="#2B59FF" stroke-width="2.00302"/>
<g opacity="0.6">
<path d="M20.9839 153.882L23.3704 154.09L22.8816 159.678L21.6205 159.567L22.0158 155.05L20.8904 154.951L20.9839 153.882ZM27.0029 154.36C27.7851 154.428 28.3649 154.726 28.7425 155.252C29.12 155.778 29.2687 156.499 29.1887 157.414C29.1091 158.324 28.8374 159.008 28.3738 159.466C27.9106 159.919 27.2879 160.111 26.5057 160.043C25.7182 159.974 25.133 159.676 24.7501 159.149C24.3731 158.618 24.2243 157.897 24.3039 156.987C24.384 156.072 24.6556 155.388 25.1188 154.935C25.5873 154.483 26.2154 154.291 27.0029 154.36ZM26.9184 155.326C26.5193 155.291 26.2136 155.414 26.0013 155.696C25.789 155.978 25.6542 156.446 25.597 157.1C25.5402 157.749 25.5916 158.234 25.7513 158.553C25.9115 158.868 26.1911 159.042 26.5902 159.077C26.9786 159.111 27.279 158.987 27.4913 158.706C27.7041 158.418 27.8389 157.95 27.8957 157.301C27.9529 156.647 27.9015 156.162 27.7413 155.848C27.5811 155.534 27.3068 155.36 26.9184 155.326ZM32.6305 154.852C33.4127 154.921 33.9926 155.218 34.3701 155.744C34.7477 156.271 34.8964 156.991 34.8163 157.907C34.7367 158.817 34.4651 159.501 34.0014 159.959C33.5382 160.411 32.9155 160.604 32.1333 160.535C31.3458 160.466 30.7606 160.168 30.3778 159.642C30.0007 159.11 29.852 158.389 29.9316 157.479C30.0117 156.564 30.2833 155.88 30.7465 155.427C31.215 154.975 31.843 154.783 32.6305 154.852ZM32.546 155.818C32.147 155.783 31.8413 155.907 31.629 156.188C31.4167 156.47 31.2819 156.938 31.2246 157.592C31.1678 158.242 31.2193 158.726 31.379 159.046C31.5391 159.36 31.8188 159.535 32.2178 159.569C32.6063 159.603 32.9067 159.48 33.119 159.198C33.3317 158.911 33.4665 158.443 33.5233 157.794C33.5806 157.139 33.5291 156.655 33.369 156.34C33.2088 156.026 32.9345 155.852 32.546 155.818Z" fill="#12141D"/>
<path d="M25.0844 140.712L24.9922 141.766L20.7939 141.399L20.87 140.529L23.1237 138.578C23.3262 138.408 23.4884 138.24 23.6102 138.074C23.7377 137.903 23.8073 137.751 23.819 137.618C23.8343 137.442 23.777 137.3 23.6471 137.193C23.5229 137.08 23.3411 137.013 23.1016 136.992C22.8622 136.971 22.6014 137.01 22.3193 137.109C22.0372 137.207 21.759 137.354 21.4845 137.55L21.072 136.565C21.8543 136.081 22.6232 135.872 23.3788 135.939C23.7513 135.971 24.0758 136.061 24.3524 136.209C24.6295 136.351 24.8384 136.538 24.9789 136.77C25.1199 136.997 25.1778 137.254 25.1527 137.541C25.128 137.823 25.0093 138.108 24.7965 138.395C24.5838 138.682 24.2917 138.986 23.9205 139.308L22.5223 140.488L25.0844 140.712ZM28.5715 136.401C29.3537 136.469 29.9336 136.767 30.3111 137.293C30.6887 137.819 30.8374 138.54 30.7573 139.455C30.6777 140.365 30.4061 141.049 29.9424 141.507C29.4793 141.96 28.8566 142.152 28.0744 142.084C27.2868 142.015 26.7017 141.717 26.3188 141.19C25.9417 140.659 25.793 139.938 25.8726 139.028C25.9527 138.113 26.2243 137.429 26.6875 136.976C27.156 136.524 27.784 136.332 28.5715 136.401ZM28.4871 137.367C28.088 137.332 27.7823 137.455 27.57 137.737C27.3577 138.019 27.2229 138.487 27.1656 139.141C27.1088 139.79 27.1603 140.275 27.32 140.594C27.4801 140.909 27.7598 141.083 28.1589 141.118C28.5473 141.152 28.8477 141.028 29.06 140.747C29.2727 140.46 29.4075 139.991 29.4643 139.342C29.5216 138.688 29.4701 138.203 29.31 137.889C29.1498 137.575 28.8755 137.401 28.4871 137.367ZM34.1992 136.893C34.9814 136.962 35.5613 137.259 35.9388 137.785C36.3163 138.312 36.4651 139.033 36.385 139.948C36.3054 140.858 36.0338 141.542 35.5701 142C35.1069 142.452 34.4842 142.645 33.702 142.576C32.9145 142.507 32.3293 142.209 31.9465 141.683C31.5694 141.151 31.4207 140.43 31.5003 139.52C31.5803 138.605 31.852 137.921 32.3152 137.468C32.7837 137.016 33.4117 136.824 34.1992 136.893ZM34.1147 137.859C33.7156 137.824 33.4099 137.948 33.1976 138.229C32.9853 138.511 32.8505 138.979 32.7933 139.633C32.7365 140.283 32.7879 140.767 32.9476 141.087C33.1078 141.401 33.3874 141.576 33.7865 141.61C34.1749 141.644 34.4753 141.521 34.6876 141.239C34.9004 140.952 35.0352 140.484 35.092 139.835C35.1492 139.18 35.0978 138.696 34.9376 138.381C34.7775 138.067 34.5032 137.893 34.1147 137.859Z" fill="#12141D"/>
<path d="M25.2565 119.717C25.7404 119.823 26.1144 120.022 26.3785 120.314C26.6479 120.605 26.764 120.964 26.7267 121.39C26.696 121.741 26.5754 122.047 26.365 122.307C26.1603 122.562 25.8809 122.752 25.5269 122.877C25.1786 122.997 24.7784 123.037 24.3261 122.997C23.9376 122.963 23.5543 122.871 23.1761 122.72C22.8037 122.564 22.4931 122.376 22.2443 122.156L22.8128 121.264C23.0249 121.476 23.2595 121.644 23.5167 121.768C23.7739 121.893 24.0409 121.967 24.3176 121.991C24.6688 122.022 24.9462 121.976 25.1499 121.855C25.354 121.728 25.467 121.539 25.4889 121.289C25.5108 121.039 25.4315 120.842 25.2511 120.697C25.0712 120.548 24.803 120.457 24.4465 120.426L23.5445 120.347L23.6074 119.629L25.1222 118.402L22.8794 118.206L22.9608 117.183L26.7839 117.518L26.7176 118.276L24.9726 119.652L25.2565 119.717ZM30.2008 117.777C30.983 117.845 31.5629 118.142 31.9404 118.669C32.318 119.195 32.4667 119.916 32.3866 120.831C32.307 121.741 32.0354 122.425 31.5717 122.883C31.1085 123.336 30.4858 123.528 29.7036 123.46C28.9161 123.391 28.3309 123.093 27.9481 122.566C27.571 122.034 27.4223 121.314 27.5019 120.404C27.5819 119.489 27.8536 118.805 28.3168 118.352C28.7853 117.899 29.4133 117.708 30.2008 117.777ZM30.1163 118.742C29.7172 118.708 29.4116 118.831 29.1992 119.113C28.9869 119.394 28.8522 119.862 28.7949 120.517C28.7381 121.166 28.7895 121.65 28.9493 121.97C29.1094 122.284 29.389 122.459 29.7881 122.494C30.1766 122.528 30.4769 122.404 30.6892 122.122C30.902 121.835 31.0368 121.367 31.0936 120.718C31.1509 120.063 31.0994 119.579 30.9392 119.265C30.7791 118.951 30.5048 118.776 30.1163 118.742ZM35.8285 118.269C36.6107 118.337 37.1905 118.635 37.5681 119.161C37.9456 119.687 38.0943 120.408 38.0143 121.323C37.9347 122.233 37.663 122.917 37.1994 123.375C36.7362 123.828 36.1135 124.02 35.3313 123.952C34.5438 123.883 33.9586 123.585 33.5757 123.058C33.1987 122.527 33.0499 121.806 33.1295 120.896C33.2096 119.981 33.4812 119.297 33.9444 118.844C34.4129 118.392 35.041 118.2 35.8285 118.269ZM35.744 119.235C35.3449 119.2 35.0392 119.323 34.8269 119.605C34.6146 119.887 34.4798 120.355 34.4225 121.009C34.3658 121.658 34.4172 122.143 34.5769 122.462C34.7371 122.777 35.0167 122.951 35.4158 122.986C35.8042 123.02 36.1046 122.896 36.3169 122.615C36.5297 122.328 36.6645 121.86 36.7213 121.21C36.7785 120.556 36.7271 120.071 36.5669 119.757C36.4067 119.443 36.1324 119.269 35.744 119.235Z" fill="#12141D"/>
<path d="M28.4243 102.912L28.3356 103.926L27.5694 103.859L27.4591 105.12L26.3017 105.018L26.4121 103.757L23.8101 103.53L23.8876 102.644L25.8966 99.3531L27.0939 99.4579L25.1998 102.63L26.5008 102.744L26.609 101.507L27.7663 101.608L27.6581 102.845L28.4243 102.912ZM31.7955 99.821C32.5777 99.8894 33.1576 100.187 33.5351 100.713C33.9127 101.239 34.0614 101.96 33.9813 102.875C33.9017 103.785 33.6301 104.469 33.1664 104.927C32.7032 105.38 32.0805 105.572 31.2983 105.504C30.5108 105.435 29.9256 105.137 29.5428 104.61C29.1657 104.079 29.017 103.358 29.0966 102.448C29.1767 101.533 29.4483 100.849 29.9115 100.396C30.38 99.9438 31.008 99.7521 31.7955 99.821ZM31.711 100.787C31.312 100.752 31.0063 100.875 30.794 101.157C30.5816 101.439 30.4469 101.907 30.3896 102.561C30.3328 103.21 30.3843 103.695 30.544 104.014C30.7041 104.329 30.9838 104.503 31.3828 104.538C31.7713 104.572 32.0716 104.448 32.284 104.167C32.4967 103.88 32.6315 103.411 32.6883 102.762C32.7456 102.108 32.6941 101.623 32.5339 101.309C32.3738 100.995 32.0995 100.821 31.711 100.787ZM37.4232 100.313C38.2054 100.382 38.7853 100.679 39.1628 101.205C39.5403 101.732 39.6891 102.453 39.609 103.368C39.5294 104.278 39.2577 104.962 38.7941 105.42C38.3309 105.872 37.7082 106.065 36.926 105.996C36.1385 105.927 35.5533 105.629 35.1704 105.103C34.7934 104.571 34.6446 103.85 34.7242 102.94C34.8043 102.025 35.0759 101.341 35.5391 100.888C36.0077 100.436 36.6357 100.244 37.4232 100.313ZM37.3387 101.279C36.9396 101.244 36.6339 101.368 36.4216 101.649C36.2093 101.931 36.0745 102.399 36.0173 103.054C35.9605 103.703 36.0119 104.187 36.1716 104.507C36.3318 104.821 36.6114 104.996 37.0105 105.03C37.3989 105.064 37.6993 104.941 37.9116 104.659C38.1244 104.372 38.2592 103.904 38.316 103.255C38.3732 102.6 38.3218 102.116 38.1616 101.801C38.0014 101.487 37.7271 101.313 37.3387 101.279Z" fill="#12141D"/>
<path d="M27.9591 82.8181C28.3847 82.8554 28.7536 82.96 29.0656 83.1321C29.3776 83.3041 29.6103 83.5256 29.7635 83.7963C29.9168 84.0671 29.9789 84.3675 29.9501 84.6974C29.9166 85.0805 29.7939 85.4102 29.582 85.6866C29.376 85.9581 29.0957 86.1588 28.7412 86.2886C28.3925 86.4136 27.9946 86.4565 27.5476 86.4174C27.1858 86.3858 26.8134 86.2915 26.4303 86.1347C26.053 85.973 25.7243 85.778 25.444 85.5497L26.0133 84.6505C26.2306 84.8626 26.4677 85.0334 26.7244 85.1631C26.9812 85.2928 27.2399 85.3691 27.5006 85.3919C27.8146 85.4194 28.0683 85.3692 28.2618 85.2413C28.4557 85.1082 28.5636 84.9165 28.5855 84.6664C28.6069 84.4217 28.5328 84.2275 28.363 84.084C28.1991 83.9356 27.9415 83.846 27.5903 83.8153C27.3934 83.7981 27.1322 83.7806 26.8067 83.7629C26.487 83.7402 26.244 83.7297 26.0776 83.7312L26.3492 80.6264L30.0208 80.9476L29.9286 82.0012L27.4224 81.7819L27.3365 82.7636L27.9591 82.8181ZM33.4016 81.1951C34.1838 81.2636 34.7636 81.5609 35.1412 82.0873C35.5187 82.6136 35.6674 83.3343 35.5874 84.2496C35.5078 85.1595 35.2361 85.8435 34.7725 86.3015C34.3093 86.7543 33.6866 86.9465 32.9044 86.878C32.1169 86.8091 31.5317 86.5113 31.1488 85.9845C30.7717 85.4529 30.623 84.7321 30.7026 83.8222C30.7827 82.907 31.0543 82.223 31.5175 81.7702C31.986 81.3179 32.614 81.1262 33.4016 81.1951ZM33.3171 82.1609C32.918 82.126 32.6123 82.2494 32.4 82.5311C32.1877 82.8127 32.0529 83.2808 31.9956 83.9353C31.9388 84.5845 31.9903 85.0689 32.15 85.3885C32.3102 85.7028 32.5898 85.8773 32.9889 85.9123C33.3773 85.9462 33.6777 85.8224 33.89 85.5407C34.1028 85.2537 34.2375 84.7856 34.2943 84.1364C34.3516 83.4819 34.3001 82.9976 34.14 82.6833C33.9798 82.369 33.7055 82.1949 33.3171 82.1609ZM39.0292 81.6875C39.8114 81.7559 40.3913 82.0533 40.7688 82.5796C41.1464 83.1059 41.2951 83.8267 41.215 84.7419C41.1354 85.6518 40.8638 86.3358 40.4001 86.7939C39.9369 87.2467 39.3142 87.4388 38.532 87.3704C37.7445 87.3015 37.1593 87.0037 36.7765 86.4769C36.3994 85.9452 36.2507 85.2245 36.3303 84.3146C36.4103 83.3993 36.682 82.7153 37.1452 82.2626C37.6137 81.8103 38.2417 81.6186 39.0292 81.6875ZM38.9447 82.6533C38.5456 82.6183 38.24 82.7417 38.0276 83.0234C37.8153 83.3051 37.6806 83.7732 37.6233 84.4277C37.5665 85.0769 37.618 85.5612 37.7777 85.8808C37.9378 86.1951 38.2174 86.3697 38.6165 86.4046C39.005 86.4386 39.3053 86.3148 39.5176 86.0331C39.7304 85.7461 39.8652 85.278 39.922 84.6288C39.9793 83.9743 39.9278 83.4899 39.7676 83.1756C39.6075 82.8614 39.3332 82.6872 38.9447 82.6533Z" fill="#12141D"/>
<path d="M32.4737 66.8941C32.423 67.4741 32.2158 67.9117 31.8522 68.207C31.4939 68.5027 31.0221 68.6249 30.4368 68.5737C29.7131 68.5104 29.1292 68.1671 28.6851 67.5438L29.346 66.7009C29.5198 66.9198 29.7059 67.0916 29.9041 67.2162C30.1076 67.3412 30.2972 67.4114 30.4728 67.4268C30.6856 67.4454 30.8562 67.396 30.9844 67.2785C31.1126 67.161 31.187 66.9853 31.2075 66.7511L31.4435 64.0533L29.5199 63.8851L29.6135 62.8155L32.8061 63.0948L32.4737 66.8941ZM35.9124 68.9965L35.9564 68.4936C35.7969 68.662 35.5985 68.784 35.3613 68.8598C35.1241 68.9356 34.8566 68.9604 34.5586 68.9343C34.1063 68.8948 33.7578 68.741 33.5132 68.4729C33.269 68.1996 33.1644 67.8633 33.1993 67.4643C33.2347 67.0598 33.4032 66.7582 33.7047 66.5594C34.0121 66.3558 34.4267 66.2741 34.9487 66.3144L36.1299 66.4177L36.1369 66.3379C36.1569 66.1091 36.0951 65.9268 35.9515 65.7909C35.8137 65.6501 35.5985 65.567 35.3058 65.5414C34.9067 65.5064 34.4701 65.5942 33.9959 65.8048L33.6868 64.9252C34.0423 64.7847 34.3725 64.6876 34.6775 64.6339C34.9824 64.5801 35.3132 64.5688 35.6697 64.6C36.2443 64.6503 36.6768 64.8249 36.967 65.1237C37.2625 65.423 37.3917 65.815 37.3547 66.2997L37.1176 69.1019L35.9124 68.9965ZM34.9786 68.0864C35.234 68.1087 35.4602 68.0669 35.6571 67.9608C35.8541 67.8547 35.9793 67.7102 36.0329 67.5272L36.0664 67.1441L35.1006 67.0596C34.8612 67.0386 34.6794 67.0629 34.5554 67.1325C34.4371 67.1972 34.3705 67.3147 34.3556 67.485C34.3412 67.6499 34.3881 67.7881 34.4963 67.8994C34.6103 68.0059 34.7711 68.0682 34.9786 68.0864ZM41.2704 65.09C41.7493 65.1319 42.1167 65.3142 42.3727 65.6369C42.6339 65.96 42.7427 66.3716 42.6989 66.8718L42.4629 69.5696L41.2337 69.462L41.4383 67.1234C41.4621 66.8521 41.4035 66.6325 41.2627 66.4647C41.1277 66.292 40.9298 66.1942 40.6691 66.1714C40.3653 66.1502 40.1166 66.2357 39.9228 66.4279C39.7295 66.6147 39.6189 66.8677 39.591 67.187L39.4059 69.3021L38.1768 69.1946L38.5525 64.9005L39.7816 65.008L39.716 65.7583C40.0596 65.2629 40.5777 65.0401 41.2704 65.09Z" fill="#12141D"/>
</g>
<g opacity="0.6">
<path d="M67.4954 173.518L71.135 173.837L71.0663 174.53L68.2009 174.28L68.0403 176.115L70.6183 176.341L70.5576 177.035L67.9795 176.81L67.7728 179.172L67.0066 179.105L67.4954 173.518ZM73.5348 175.398C74.1893 175.455 74.6671 175.693 74.9684 176.11C75.2701 176.523 75.3909 177.072 75.3309 177.759C75.3216 177.865 75.3119 177.945 75.3019 177.997L71.9656 177.706C71.9911 178.088 72.1218 178.403 72.3576 178.649C72.5988 178.895 72.9083 179.035 73.2861 179.068C73.5362 179.09 73.7716 179.065 73.9924 178.993C74.2184 178.921 74.4185 178.81 74.5926 178.659L74.9626 179.118C74.7356 179.323 74.4703 179.474 74.167 179.571C73.8636 179.668 73.5337 179.701 73.1772 179.669C72.7621 179.633 72.4 179.513 72.0908 179.309C71.7873 179.1 71.5593 178.825 71.4068 178.485C71.2596 178.145 71.2042 177.768 71.2405 177.353C71.2768 176.938 71.3967 176.578 71.6003 176.274C71.8096 175.965 72.0818 175.735 72.4169 175.582C72.7524 175.423 73.1251 175.362 73.5348 175.398ZM74.6897 177.365C74.702 176.98 74.6006 176.668 74.3855 176.429C74.171 176.185 73.8721 176.047 73.489 176.013C73.1165 175.981 72.7955 176.065 72.5258 176.267C72.2615 176.469 72.0889 176.757 72.0079 177.13L74.6897 177.365ZM78.8816 175.866C79.2753 175.9 79.6186 176.021 79.9114 176.229C80.2042 176.437 80.4215 176.711 80.5634 177.05C80.7053 177.39 80.7579 177.77 80.7211 178.19C80.6848 178.605 80.5673 178.967 80.3686 179.277C80.1757 179.582 79.917 179.811 79.5926 179.965C79.2739 180.114 78.9177 180.172 78.524 180.137C78.1674 180.106 77.86 180.004 77.6017 179.831C77.3433 179.659 77.1491 179.427 77.019 179.137L76.9457 179.975L76.2034 179.91L76.7215 173.988L77.4638 174.053L77.2418 176.591C77.4203 176.328 77.6491 176.133 77.9282 176.007C78.2126 175.882 78.5304 175.835 78.8816 175.866ZM78.4209 179.477C78.6923 179.5 78.94 179.458 79.164 179.349C79.3933 179.24 79.5765 179.076 79.7136 178.858C79.856 178.64 79.9398 178.387 79.9649 178.1C79.9896 177.818 79.9507 177.557 79.8484 177.317C79.746 177.078 79.594 176.885 79.3923 176.739C79.1906 176.592 78.9541 176.507 78.6828 176.484C78.4114 176.46 78.161 176.502 77.9317 176.611C77.7077 176.72 77.5245 176.884 77.3821 177.102C77.2397 177.32 77.1561 177.57 77.1314 177.852C77.1058 178.145 77.1442 178.411 77.2466 178.65C77.3494 178.884 77.5017 179.075 77.7033 179.221C77.9103 179.368 78.1495 179.453 78.4209 179.477Z" fill="#12141D"/>
<path d="M47.0446 174.743C46.9966 175.291 46.813 175.704 46.4938 175.982C46.1751 176.254 45.755 176.367 45.2336 176.322C44.9196 176.294 44.633 176.199 44.3737 176.037C44.1145 175.875 43.8949 175.658 43.715 175.385L44.1419 174.827C44.2993 175.05 44.4769 175.226 44.6746 175.356C44.8782 175.481 45.0837 175.553 45.2912 175.571C45.5785 175.596 45.8068 175.53 45.976 175.373C46.1457 175.211 46.2445 174.971 46.2724 174.651L46.5497 171.483L44.5782 171.31L44.6397 170.608L47.3853 170.848L47.0446 174.743ZM50.8732 176.783L50.9249 176.192C50.5747 176.58 50.0643 176.744 49.3938 176.686C49.1012 176.66 48.848 176.582 48.6343 176.45C48.4259 176.32 48.2691 176.15 48.164 175.943C48.0641 175.736 48.0249 175.51 48.0463 175.265C48.0794 174.887 48.2438 174.601 48.5396 174.407C48.8412 174.208 49.2423 174.128 49.7429 174.167L51.0838 174.284L51.1013 174.084C51.1273 173.787 51.0542 173.55 50.882 173.374C50.7155 173.193 50.4567 173.087 50.1055 173.056C49.6798 173.019 49.2328 173.133 48.7647 173.398L48.4981 172.859C48.8186 172.689 49.1103 172.573 49.3731 172.51C49.6418 172.442 49.9544 172.424 50.3109 172.455C50.8377 172.501 51.2333 172.667 51.4978 172.953C51.7628 173.234 51.8777 173.606 51.8426 174.069L51.6075 176.847L50.8732 176.783ZM49.5993 176.084C49.9451 176.115 50.245 176.058 50.4989 175.914C50.7586 175.765 50.9244 175.554 50.9965 175.282L51.0335 174.859L49.7964 174.75C49.4612 174.721 49.2067 174.75 49.0329 174.836C48.8644 174.924 48.7706 175.076 48.7515 175.294C48.7324 175.513 48.7998 175.693 48.9535 175.835C49.1073 175.977 49.3226 176.06 49.5993 176.084ZM55.651 172.922C56.1459 172.966 56.5215 173.146 56.7779 173.463C57.0348 173.775 57.1409 174.187 57.0962 174.697L56.8679 177.307L56.1256 177.242L56.3365 174.832C56.3676 174.476 56.2908 174.19 56.1058 173.975C55.9266 173.756 55.6614 173.631 55.3102 173.6C54.9319 173.572 54.6126 173.668 54.3522 173.886C54.0976 174.1 53.9378 174.394 53.8728 174.769L53.6752 177.028L52.9329 176.963L53.3023 172.741L54.0446 172.806L53.9664 173.7C54.301 173.123 54.8626 172.864 55.651 172.922Z" fill="#12141D"/>
<path d="M91.2566 175.236L92.1665 175.315L93.8662 179.421L96.2371 175.672L97.155 175.752L96.6662 181.339L95.9478 181.276L96.3302 176.814L94.0041 180.511L93.5332 180.47L91.8685 176.423L91.4781 180.885L90.7677 180.823L91.2566 175.236ZM100.772 181.698L100.824 181.108C100.474 181.495 99.9634 181.66 99.2929 181.601C99.0003 181.575 98.7471 181.497 98.5334 181.366C98.325 181.235 98.1682 181.066 98.0631 180.858C97.9632 180.651 97.924 180.425 97.9454 180.18C97.9785 179.802 98.1429 179.517 98.4387 179.323C98.7402 179.124 99.1413 179.044 99.642 179.082L100.983 179.199L101 179C101.026 178.702 100.953 178.465 100.781 178.289C100.615 178.108 100.356 178.002 100.005 177.972C99.5789 177.934 99.1319 178.048 98.6637 178.313L98.3971 177.775C98.7177 177.604 99.0094 177.488 99.2722 177.425C99.5409 177.357 99.8535 177.339 100.21 177.37C100.737 177.416 101.132 177.582 101.397 177.868C101.662 178.149 101.777 178.521 101.742 178.984L101.507 181.763L100.772 181.698ZM99.4983 181C99.8442 181.03 100.144 180.973 100.398 180.829C100.658 180.68 100.824 180.47 100.896 180.197L100.933 179.774L99.6955 179.666C99.3602 179.636 99.1057 179.665 98.9319 179.752C98.7635 179.839 98.6697 179.992 98.6506 180.21C98.6315 180.428 98.6988 180.608 98.8526 180.75C99.0064 180.892 99.2216 180.975 99.4983 181ZM103.864 178.631C104.029 178.34 104.246 178.128 104.515 177.996C104.784 177.859 105.095 177.803 105.446 177.828L105.383 178.547C104.954 178.493 104.596 178.574 104.309 178.791C104.022 179.007 103.842 179.315 103.769 179.717L103.574 181.943L102.832 181.878L103.201 177.656L103.944 177.721L103.864 178.631Z" fill="#12141D"/>
<path d="M118.192 182.977L117.72 181.568L114.775 181.31L114.073 182.616L113.267 182.546L116.238 177.176L117.036 177.246L119.022 183.049L118.192 182.977ZM115.139 180.642L117.485 180.848L116.542 178.031L115.139 180.642ZM122.479 179.073C122.873 179.107 123.216 179.229 123.509 179.436C123.802 179.644 124.019 179.918 124.161 180.258C124.303 180.597 124.355 180.977 124.319 181.397C124.282 181.812 124.165 182.175 123.966 182.484C123.773 182.789 123.514 183.019 123.19 183.173C122.871 183.322 122.515 183.379 122.121 183.344C121.765 183.313 121.457 183.211 121.199 183.039C120.941 182.866 120.747 182.634 120.616 182.344L120.408 184.731L119.665 184.666L120.17 178.895L120.913 178.96L120.839 179.798C121.018 179.535 121.247 179.34 121.526 179.215C121.81 179.089 122.128 179.042 122.479 179.073ZM122.018 182.684C122.29 182.708 122.537 182.665 122.761 182.556C122.991 182.447 123.174 182.284 123.311 182.065C123.453 181.847 123.537 181.594 123.562 181.307C123.587 181.025 123.548 180.764 123.446 180.525C123.343 180.285 123.191 180.092 122.99 179.946C122.788 179.8 122.552 179.715 122.28 179.691C122.009 179.667 121.758 179.71 121.529 179.818C121.305 179.927 121.122 180.091 120.979 180.309C120.837 180.527 120.754 180.777 120.729 181.059C120.703 181.352 120.742 181.618 120.844 181.857C120.947 182.092 121.099 182.282 121.301 182.428C121.508 182.575 121.747 182.66 122.018 182.684ZM126.202 180.34C126.367 180.048 126.584 179.837 126.853 179.705C127.123 179.568 127.433 179.512 127.785 179.537L127.722 180.255C127.292 180.202 126.934 180.283 126.647 180.499C126.36 180.715 126.18 181.024 126.107 181.425L125.913 183.652L125.17 183.587L125.54 179.365L126.282 179.43L126.202 180.34Z" fill="#12141D"/>
<path d="M138.259 178.8L139.169 178.879L140.869 182.985L143.24 179.236L144.157 179.316L143.669 184.903L142.95 184.84L143.333 180.378L141.007 184.075L140.536 184.034L138.871 179.987L138.481 184.449L137.77 184.387L138.259 178.8ZM147.775 185.262L147.826 184.672C147.476 185.059 146.966 185.224 146.295 185.165C146.003 185.139 145.75 185.061 145.536 184.93C145.327 184.799 145.171 184.63 145.065 184.422C144.966 184.215 144.926 183.989 144.948 183.744C144.981 183.366 145.145 183.081 145.441 182.887C145.743 182.688 146.144 182.608 146.644 182.646L147.985 182.763L148.003 182.564C148.029 182.266 147.956 182.029 147.783 181.853C147.617 181.672 147.358 181.566 147.007 181.536C146.581 181.498 146.134 181.612 145.666 181.877L145.4 181.339C145.72 181.168 146.012 181.052 146.275 180.989C146.543 180.921 146.856 180.903 147.212 180.934C147.739 180.98 148.135 181.146 148.399 181.432C148.664 181.713 148.779 182.085 148.744 182.548L148.509 185.326L147.775 185.262ZM146.501 184.564C146.847 184.594 147.147 184.537 147.4 184.393C147.66 184.244 147.826 184.034 147.898 183.761L147.935 183.338L146.698 183.23C146.363 183.2 146.108 183.229 145.934 183.316C145.766 183.403 145.672 183.556 145.653 183.774C145.634 183.992 145.701 184.172 145.855 184.314C146.009 184.456 146.224 184.539 146.501 184.564ZM151.111 186.157C150.949 186.47 150.749 186.699 150.512 186.845C150.279 186.991 150.014 187.051 149.716 187.025C149.535 187.009 149.372 186.968 149.228 186.901C149.083 186.835 148.947 186.74 148.818 186.616L149.189 186.062C149.363 186.211 149.546 186.294 149.738 186.311C150.057 186.339 150.312 186.179 150.504 185.831L150.696 185.47L149.313 181.142L150.096 181.211L151.14 184.712L152.706 181.439L153.464 181.505L151.111 186.157Z" fill="#12141D"/>
<path d="M165.883 186.087C165.835 186.635 165.652 187.048 165.332 187.326C165.014 187.598 164.594 187.712 164.072 187.666C163.758 187.639 163.472 187.544 163.212 187.382C162.953 187.22 162.733 187.002 162.554 186.729L162.98 186.171C163.138 186.394 163.315 186.57 163.513 186.7C163.717 186.825 163.922 186.897 164.13 186.915C164.417 186.94 164.645 186.874 164.815 186.718C164.984 186.556 165.083 186.315 165.111 185.996L165.388 182.827L163.417 182.654L163.478 181.952L166.224 182.192L165.883 186.087ZM171.239 184.006L170.869 188.229L170.119 188.163L170.197 187.269C169.868 187.846 169.32 188.106 168.552 188.05C168.063 188.007 167.692 187.83 167.441 187.518C167.19 187.202 167.086 186.788 167.131 186.277L167.359 183.667L168.11 183.733L167.899 186.143C167.868 186.499 167.939 186.787 168.113 187.006C168.292 187.22 168.553 187.342 168.893 187.372C169.287 187.401 169.611 187.29 169.863 187.039C170.122 186.782 170.269 186.442 170.307 186.016L170.488 183.941L171.239 184.006ZM175.035 184.314C175.53 184.358 175.906 184.538 176.162 184.855C176.419 185.167 176.525 185.579 176.48 186.089L176.252 188.699L175.51 188.635L175.721 186.224C175.752 185.868 175.675 185.582 175.49 185.367C175.311 185.148 175.046 185.023 174.694 184.992C174.316 184.965 173.997 185.06 173.736 185.278C173.482 185.492 173.322 185.786 173.257 186.161L173.059 188.42L172.317 188.355L172.686 184.133L173.429 184.198L173.351 185.092C173.685 184.515 174.247 184.256 175.035 184.314Z" fill="#12141D"/>
<path d="M189.568 187.74C189.52 188.288 189.336 188.701 189.017 188.979C188.698 189.251 188.278 189.365 187.757 189.319C187.443 189.292 187.156 189.197 186.897 189.035C186.638 188.873 186.418 188.655 186.238 188.382L186.665 187.824C186.823 188.047 187 188.223 187.198 188.353C187.401 188.478 187.607 188.55 187.814 188.568C188.102 188.593 188.33 188.527 188.499 188.371C188.669 188.209 188.768 187.968 188.796 187.649L189.073 184.48L187.101 184.307L187.163 183.605L189.909 183.845L189.568 187.74ZM194.923 185.659L194.554 189.882L193.804 189.816L193.882 188.922C193.552 189.499 193.004 189.759 192.237 189.703C191.747 189.66 191.377 189.483 191.125 189.171C190.874 188.855 190.771 188.441 190.816 187.93L191.044 185.32L191.794 185.386L191.584 187.796C191.552 188.153 191.624 188.44 191.798 188.659C191.977 188.873 192.237 188.995 192.578 189.025C192.972 189.054 193.295 188.943 193.548 188.692C193.806 188.436 193.954 188.095 193.991 187.669L194.173 185.594L194.923 185.659ZM196.56 184.089L197.302 184.154L196.784 190.077L196.042 190.012L196.56 184.089Z" fill="#12141D"/>
<path d="M211.683 191.167L211.211 189.759L208.265 189.501L207.564 190.807L206.758 190.737L209.729 185.367L210.527 185.436L212.513 191.24L211.683 191.167ZM208.629 188.833L210.976 189.039L210.032 186.222L208.629 188.833ZM217.138 187.39L216.769 191.612L216.019 191.547L216.097 190.653C215.767 191.23 215.219 191.49 214.452 191.434C213.963 191.391 213.592 191.214 213.34 190.902C213.089 190.585 212.986 190.172 213.031 189.661L213.259 187.051L214.009 187.116L213.799 189.527C213.767 189.883 213.839 190.171 214.013 190.39C214.192 190.604 214.452 190.726 214.793 190.756C215.187 190.785 215.51 190.674 215.763 190.423C216.021 190.166 216.169 189.825 216.206 189.4L216.388 187.324L217.138 187.39ZM222.322 187.844L221.99 191.635C221.954 192.039 221.833 192.385 221.626 192.673C221.423 192.961 221.153 193.17 220.815 193.301C220.476 193.438 220.091 193.487 219.66 193.45C219.037 193.395 218.474 193.148 217.971 192.707L218.346 192.193C218.539 192.381 218.743 192.525 218.96 192.624C219.176 192.729 219.417 192.793 219.683 192.816C220.119 192.855 220.478 192.763 220.761 192.541C221.043 192.319 221.202 192.003 221.238 191.593L221.289 191.003C221.118 191.245 220.898 191.427 220.63 191.548C220.363 191.664 220.064 191.708 219.734 191.679C219.356 191.646 219.029 191.531 218.751 191.335C218.479 191.135 218.276 190.873 218.144 190.55C218.011 190.228 217.962 189.867 217.997 189.468C218.032 189.074 218.142 188.733 218.328 188.443C218.514 188.154 218.759 187.937 219.061 187.792C219.368 187.647 219.711 187.591 220.089 187.624C220.424 187.653 220.711 187.748 220.949 187.908C221.192 188.069 221.377 188.284 221.504 188.552L221.571 187.778L222.322 187.844ZM219.93 191.093C220.191 191.116 220.428 191.075 220.641 190.97C220.853 190.865 221.025 190.711 221.155 190.508C221.292 190.3 221.372 190.061 221.395 189.789C221.42 189.513 221.382 189.263 221.284 189.04C221.191 188.812 221.049 188.628 220.858 188.488C220.666 188.348 220.44 188.266 220.179 188.243C219.919 188.22 219.679 188.261 219.461 188.365C219.248 188.47 219.074 188.626 218.937 188.834C218.802 189.037 218.722 189.277 218.698 189.553C218.667 189.969 218.764 190.321 218.991 190.608C219.218 190.896 219.531 191.058 219.93 191.093Z" fill="#12141D"/>
<path d="M235.02 189.342C234.774 189.154 234.514 189.008 234.238 188.904C233.969 188.794 233.718 188.73 233.483 188.709C233.159 188.681 232.893 188.722 232.684 188.832C232.482 188.938 232.372 189.1 232.352 189.318C232.335 189.515 232.38 189.682 232.485 189.82C232.592 189.953 232.727 190.064 232.891 190.153C233.055 190.237 233.284 190.34 233.579 190.463C233.947 190.613 234.243 190.751 234.468 190.878C234.693 191.005 234.878 191.182 235.025 191.409C235.171 191.631 235.23 191.915 235.199 192.261C235.171 192.58 235.059 192.852 234.863 193.076C234.671 193.301 234.413 193.466 234.087 193.571C233.768 193.672 233.406 193.705 233.001 193.669C232.591 193.634 232.199 193.519 231.825 193.325C231.45 193.132 231.134 192.889 230.875 192.599L231.276 191.966C231.519 192.25 231.8 192.479 232.117 192.651C232.44 192.819 232.759 192.916 233.073 192.944C233.445 192.976 233.744 192.93 233.97 192.805C234.201 192.675 234.327 192.485 234.349 192.235C234.366 192.038 234.322 191.871 234.216 191.733C234.11 191.595 233.97 191.481 233.796 191.39C233.627 191.301 233.394 191.197 233.099 191.08C232.736 190.936 232.443 190.8 232.218 190.673C231.993 190.546 231.807 190.372 231.66 190.15C231.519 189.929 231.463 189.648 231.493 189.307C231.519 189.009 231.624 188.753 231.809 188.538C231.994 188.324 232.241 188.169 232.55 188.072C232.859 187.976 233.21 187.945 233.604 187.98C233.939 188.009 234.262 188.088 234.572 188.217C234.888 188.341 235.164 188.497 235.4 188.684L235.02 189.342ZM238.279 189.804C238.934 189.861 239.412 190.099 239.713 190.517C240.015 190.929 240.135 191.479 240.075 192.165C240.066 192.271 240.056 192.351 240.046 192.404L236.71 192.112C236.736 192.495 236.866 192.809 237.102 193.055C237.343 193.301 237.653 193.441 238.031 193.474C238.281 193.496 238.516 193.471 238.737 193.399C238.963 193.328 239.163 193.217 239.337 193.066L239.707 193.524C239.48 193.73 239.215 193.881 238.911 193.977C238.608 194.074 238.278 194.107 237.922 194.076C237.507 194.039 237.144 193.919 236.835 193.715C236.532 193.506 236.304 193.232 236.151 192.891C236.004 192.551 235.949 192.174 235.985 191.759C236.021 191.344 236.141 190.984 236.345 190.68C236.554 190.372 236.826 190.141 237.161 189.988C237.497 189.83 237.87 189.768 238.279 189.804ZM239.434 191.771C239.446 191.386 239.345 191.074 239.13 190.836C238.915 190.592 238.617 190.453 238.233 190.419C237.861 190.387 237.54 190.471 237.27 190.673C237.006 190.875 236.833 191.163 236.752 191.537L239.434 191.771ZM243.626 190.272C244.02 190.306 244.363 190.428 244.656 190.636C244.949 190.843 245.166 191.117 245.308 191.457C245.45 191.796 245.502 192.176 245.466 192.596C245.429 193.011 245.312 193.374 245.113 193.683C244.92 193.988 244.662 194.218 244.337 194.372C244.018 194.521 243.662 194.578 243.268 194.544C242.912 194.512 242.605 194.41 242.346 194.238C242.088 194.065 241.894 193.833 241.763 193.543L241.555 195.93L240.812 195.865L241.317 190.094L242.06 190.159L241.986 190.997C242.165 190.734 242.394 190.539 242.673 190.414C242.957 190.289 243.275 190.241 243.626 190.272ZM243.165 193.883C243.437 193.907 243.684 193.864 243.908 193.755C244.138 193.646 244.321 193.483 244.458 193.264C244.6 193.046 244.684 192.793 244.709 192.506C244.734 192.224 244.695 191.963 244.593 191.724C244.49 191.484 244.338 191.291 244.137 191.145C243.935 190.999 243.699 190.914 243.427 190.89C243.156 190.866 242.906 190.909 242.676 191.017C242.452 191.126 242.269 191.29 242.127 191.508C241.984 191.726 241.901 191.976 241.876 192.258C241.85 192.551 241.889 192.817 241.991 193.056C242.094 193.291 242.246 193.481 242.448 193.627C242.655 193.774 242.894 193.859 243.165 193.883Z" fill="#12141D"/>
</g>
<path d="M74.2163 42.6107L71.7872 44.8682L76.204 45.2634L74.2163 42.6107Z" stroke="#4AB940" stroke-width="3.32396" stroke-linecap="round" stroke-linejoin="round"/>
<rect width="1.62716" height="0.976293" transform="matrix(0.996214 0.0869447 -0.0873673 0.996175 73.2606 43.2375)" fill="#4AB940"/>
<path opacity="0.6" d="M33.4978 17.8989L34.5154 17.9879L35.7961 21.1227L37.5883 18.2567L38.606 18.3458L38.1986 23.0017L37.3805 22.9301L37.6727 19.5912L35.9724 22.3244L35.4004 22.2743L34.194 19.2868L33.9019 22.6258L33.0904 22.5548L33.4978 17.8989ZM41.1823 19.6502C41.5504 19.6824 41.8675 19.7861 42.1337 19.9613C42.4043 20.1369 42.6051 20.369 42.7363 20.6575C42.8722 20.9419 42.9247 21.2615 42.8937 21.6163C42.8623 21.9754 42.7547 22.2855 42.571 22.5465C42.3918 22.8078 42.1536 23.0014 41.8567 23.1274C41.5641 23.2537 41.2338 23.3008 40.8658 23.2686C40.4933 23.236 40.1718 23.1319 39.9012 22.9563C39.6306 22.7807 39.4275 22.5485 39.2919 22.2596C39.1608 21.9711 39.1109 21.6472 39.1423 21.2881C39.1734 20.9333 39.2783 20.6275 39.4572 20.3706C39.6408 20.1096 39.8812 19.9162 40.1782 19.7903C40.4751 19.6643 40.8099 19.6177 41.1823 19.6502ZM41.1178 20.3885C40.8162 20.3622 40.5636 20.4406 40.3599 20.6238C40.1562 20.8071 40.0404 21.0583 40.0125 21.3776C39.9845 21.6969 40.055 21.9644 40.2238 22.1803C40.3925 22.3961 40.6277 22.5172 40.9292 22.5436C41.2219 22.5692 41.47 22.4904 41.6737 22.3071C41.8774 22.1239 41.9933 21.8726 42.0212 21.5533C42.0491 21.2341 41.9787 20.9665 41.8099 20.7507C41.6411 20.5349 41.4104 20.4141 41.1178 20.3885ZM45.9448 20.0602C46.3528 20.0959 46.6634 20.2482 46.8767 20.5171C47.0904 20.7815 47.1788 21.1243 47.1419 21.5456L46.9476 23.7671L46.0762 23.6909L46.2485 21.7221C46.2702 21.4738 46.2163 21.2725 46.0868 21.1182C45.9577 20.9594 45.7713 20.8694 45.5274 20.8481C45.2388 20.8273 45.0019 20.9048 44.8167 21.0808C44.6359 21.2571 44.5326 21.4938 44.5066 21.7909L44.3535 23.5402L43.4889 23.4645L43.8002 19.9061L44.6649 19.9817L44.6067 20.6469C44.8905 20.2115 45.3366 20.0159 45.9448 20.0602ZM50.0198 23.8148C49.7209 23.9629 49.4162 24.0233 49.1059 23.9962C48.7999 23.9694 48.5571 23.8588 48.3775 23.6644C48.1983 23.4655 48.124 23.1909 48.1547 22.8406L48.3083 21.0847L47.8095 21.041L47.8581 20.4086L48.3636 20.4528L48.4491 19.475L49.3072 19.5501L49.2216 20.5278L50.2393 20.6169L50.184 21.2488L49.1663 21.1597L49.0261 22.7627C49.0117 22.9268 49.0325 23.047 49.0884 23.1234C49.1446 23.1953 49.2348 23.2367 49.359 23.2476C49.492 23.2592 49.6648 23.2252 49.8773 23.1455L50.0198 23.8148ZM53.1752 20.6928C53.5831 20.7285 53.8938 20.8807 54.107 21.1496C54.3207 21.4141 54.4091 21.7569 54.3723 22.1782L54.1779 24.3997L53.3066 24.3235L53.4788 22.3547C53.5006 22.1064 53.4467 21.9051 53.3172 21.7508C53.1881 21.592 53.0016 21.502 52.7577 21.4806C52.4691 21.4598 52.2322 21.5374 52.0471 21.7134C51.8619 21.8893 51.7563 22.1258 51.7303 22.4229L51.5772 24.1722L50.7126 24.0965L51.1444 19.1612L52.009 19.2369L51.8292 21.2922C52.1138 20.8479 52.5625 20.6481 53.1752 20.6928ZM55.6132 19.5522L56.4779 19.6279L56.0461 24.5632L55.1814 24.4875L55.6132 19.5522ZM58.6395 25.2391C58.503 25.5221 58.3242 25.7276 58.1029 25.8557C57.8858 25.9886 57.6353 26.0427 57.3515 26.0178C57.1786 26.0027 57.0235 25.9623 56.8862 25.8967C56.7531 25.8359 56.6226 25.744 56.4948 25.6212L56.9249 24.9953C57.0037 25.0647 57.0774 25.1158 57.1461 25.1487C57.2143 25.1859 57.2883 25.208 57.3681 25.215C57.6031 25.2356 57.7866 25.131 57.9184 24.9012L58.0451 24.6777L56.8813 21.0505L57.7792 21.1291L58.5639 23.8049L59.7148 21.2984L60.5861 21.3747L58.6395 25.2391ZM64.7531 20.6334C65.3385 20.6846 65.7785 20.8638 66.0734 21.1711C66.3726 21.4788 66.4999 21.8876 66.4553 22.3975C66.4088 22.9296 66.2106 23.3301 65.861 23.5988C65.5161 23.8636 65.051 23.9703 64.4657 23.9191L63.448 23.8301L63.3281 25.2003L62.4369 25.1223L62.8442 20.4663L64.7531 20.6334ZM64.4878 23.1302C64.8248 23.1597 65.0884 23.109 65.2785 22.9782C65.4731 22.8478 65.5831 22.6384 65.6083 22.3502C65.6331 22.0664 65.5608 21.8456 65.3914 21.6878C65.2265 21.5304 64.9755 21.437 64.6385 21.4075L63.6674 21.3225L63.5167 23.0452L64.4878 23.1302ZM68.008 22.7143C68.1479 22.4942 68.3251 22.3332 68.5395 22.2313C68.7588 22.1254 69.0061 22.0823 69.2814 22.1019L69.2081 22.94C68.842 22.8856 68.5396 22.9463 68.3008 23.122C68.0668 23.2936 67.9355 23.5435 67.9068 23.8717L67.7566 25.5877L66.892 25.5121L67.2033 21.9536L68.068 22.0292L68.008 22.7143ZM71.4447 22.2978C71.8127 22.33 72.1298 22.4337 72.396 22.609C72.6666 22.7845 72.8674 23.0166 72.9986 23.3051C73.1345 23.5895 73.187 23.9091 73.156 24.2639C73.1246 24.6231 73.017 24.9331 72.8333 25.1941C72.6541 25.4554 72.416 25.6491 72.119 25.775C71.8264 25.9013 71.4961 25.9484 71.1281 25.9162C70.7556 25.8836 70.4341 25.7795 70.1635 25.6039C69.8929 25.4283 69.6898 25.1961 69.5542 24.9072C69.4231 24.6187 69.3732 24.2949 69.4046 23.9357C69.4357 23.5809 69.5406 23.2751 69.7195 23.0182C69.9032 22.7573 70.1435 22.5638 70.4405 22.4379C70.7374 22.3119 71.0722 22.2653 71.4447 22.2978ZM71.3801 23.0361C71.0785 23.0098 70.8259 23.0882 70.6222 23.2714C70.4185 23.4547 70.3027 23.7059 70.2748 24.0252C70.2469 24.3445 70.3173 24.612 70.4861 24.8279C70.6548 25.0437 70.89 25.1648 71.1915 25.1912C71.4842 25.2168 71.7324 25.138 71.936 24.9547C72.1397 24.7715 72.2556 24.5202 72.2835 24.201C72.3114 23.8817 72.241 23.6141 72.0722 23.3983C71.9034 23.1825 71.6727 23.0618 71.3801 23.0361ZM72.9458 26.5846C73.0447 26.629 73.1449 26.6578 73.2465 26.6712C73.3924 26.6884 73.5076 26.6494 73.5919 26.554C73.6802 26.4634 73.7327 26.3228 73.7494 26.1321L74.0625 22.5537L74.9272 22.6293L74.6024 26.3408C74.5702 26.7088 74.4455 26.9861 74.2281 27.1726C74.0147 27.364 73.7329 27.4443 73.3826 27.4137C73.1387 27.3923 72.912 27.3278 72.7025 27.2201L72.9458 26.5846ZM74.622 21.0611C74.7639 21.0735 74.8771 21.1326 74.9617 21.2383C75.0463 21.344 75.082 21.4722 75.0688 21.623C75.056 21.7693 74.9988 21.8872 74.8971 21.9766C74.7955 22.066 74.6737 22.1045 74.5318 22.0921C74.3899 22.0797 74.2767 22.0206 74.1921 21.9149C74.1075 21.8092 74.0716 21.6832 74.0844 21.5369C74.0976 21.3861 74.155 21.266 74.2567 21.1766C74.3583 21.0872 74.4801 21.0487 74.622 21.0611ZM77.4382 22.8222C78.0058 22.8719 78.4173 23.071 78.6728 23.4195C78.9327 23.7684 79.0371 24.2355 78.9859 24.8208C78.9758 24.9361 78.966 25.0224 78.9565 25.0797L76.3292 24.8498C76.3648 25.1076 76.4648 25.3174 76.6294 25.4793C76.7988 25.6371 77.0143 25.7274 77.2759 25.7503C77.4577 25.7662 77.6335 25.7481 77.8034 25.6959C77.9781 25.6397 78.1332 25.5527 78.2686 25.435L78.6917 25.9613C78.4973 26.1409 78.2668 26.2726 78.0003 26.3566C77.7383 26.4409 77.452 26.4695 77.1416 26.4423C76.778 26.4105 76.4631 26.307 76.197 26.1318C75.9352 25.957 75.7408 25.7277 75.6137 25.444C75.487 25.1559 75.4392 24.8345 75.4702 24.4798C75.5012 24.125 75.6042 23.8168 75.779 23.555C75.9582 23.2937 76.1919 23.0997 76.48 22.973C76.7685 22.8418 77.0879 22.7916 77.4382 22.8222ZM78.2223 24.4323C78.2363 24.1699 78.1681 23.954 78.0176 23.7844C77.8671 23.6149 77.6566 23.5183 77.3861 23.4946C77.1334 23.4725 76.9137 23.5315 76.7272 23.6715C76.5455 23.8075 76.4231 24.0068 76.3599 24.2694L78.2223 24.4323ZM82.2383 24.4017C82.0217 24.1191 81.7227 23.9611 81.3414 23.9278C81.0532 23.9025 80.8096 23.9795 80.6108 24.1587C80.4163 24.3383 80.3055 24.5833 80.2784 24.8937C80.2504 25.213 80.3166 25.4779 80.4769 25.6885C80.6416 25.8996 80.8681 26.0177 81.1563 26.0429C81.582 26.0801 81.9135 25.9684 82.1508 25.7076L82.6506 26.2004C82.4708 26.417 82.2446 26.576 81.9721 26.6772C81.6997 26.7785 81.3905 26.814 81.0446 26.7838C80.6943 26.7531 80.3883 26.6504 80.1266 26.4756C79.8693 26.3011 79.6771 26.0721 79.55 25.7884C79.4233 25.5003 79.3754 25.1789 79.4065 24.8241C79.4379 24.465 79.541 24.1545 79.7158 23.8928C79.8951 23.6314 80.1265 23.4372 80.4102 23.3101C80.6983 23.1834 81.0197 23.1356 81.3745 23.1666C81.6982 23.1949 81.9814 23.2778 82.224 23.4152C82.4715 23.5485 82.666 23.7264 82.8074 23.9488L82.2383 24.4017ZM85.433 26.913C85.1341 27.0611 84.8294 27.1216 84.519 27.0944C84.2131 27.0677 83.9703 26.9571 83.7907 26.7626C83.6115 26.5638 83.5372 26.2892 83.5679 25.9389L83.7215 24.1829L83.2227 24.1393L83.2713 23.5068L83.7768 23.551L83.8623 22.5733L84.7204 22.6483L84.6348 23.6261L85.6525 23.7151L85.5972 24.347L84.5795 24.258L84.4393 25.8609C84.4249 26.025 84.4457 26.1452 84.5016 26.2216C84.5578 26.2936 84.648 26.335 84.7722 26.3458C84.9052 26.3575 85.078 26.3234 85.2905 26.2437L85.433 26.913ZM87.6048 22.6326L88.5625 22.7164L89.6121 26.5012L91.3162 22.9573L92.2341 23.0376L89.9644 27.5306L89.0398 27.4497L87.6048 22.6326ZM92.6979 24.1841L93.5626 24.2597L93.2513 27.8182L92.3866 27.7425L92.6979 24.1841ZM93.2575 22.6915C93.3994 22.7039 93.5126 22.763 93.5972 22.8687C93.6818 22.9744 93.7175 23.1026 93.7043 23.2534C93.6915 23.3997 93.6342 23.5176 93.5326 23.607C93.4309 23.6964 93.3092 23.7349 93.1673 23.7225C93.0254 23.7101 92.9121 23.651 92.8275 23.5453C92.743 23.4396 92.7071 23.3136 92.7199 23.1673C92.7331 23.0165 92.7905 22.8964 92.8921 22.807C92.9938 22.7176 93.1156 22.6791 93.2575 22.6915ZM96.1192 24.4566C96.6867 24.5062 97.0983 24.7053 97.3537 25.0539C97.6136 25.4028 97.718 25.8699 97.6668 26.4552C97.6567 26.5705 97.6469 26.6568 97.6374 26.714L95.0101 26.4842C95.0457 26.742 95.1457 26.9518 95.3103 27.1136C95.4797 27.2714 95.6952 27.3618 95.9568 27.3847C96.1386 27.4006 96.3145 27.3825 96.4843 27.3303C96.6591 27.2741 96.8141 27.1871 96.9495 27.0694L97.3726 27.5957C97.1782 27.7753 96.9477 27.907 96.6812 27.9909C96.4192 28.0752 96.1329 28.1038 95.8225 28.0767C95.4589 28.0449 95.1441 27.9413 94.8779 27.7661C94.6162 27.5913 94.4217 27.3621 94.2946 27.0784C94.1679 26.7903 94.1201 26.4689 94.1511 26.1141C94.1822 25.7594 94.2851 25.4511 94.4599 25.1894C94.6392 24.9281 94.8728 24.734 95.1609 24.6073C95.4494 24.4762 95.7688 24.4259 96.1192 24.4566ZM96.9032 26.0667C96.9172 25.8043 96.849 25.5883 96.6985 25.4188C96.548 25.2492 96.3375 25.1526 96.067 25.129C95.8143 25.1068 95.5946 25.1658 95.4081 25.3059C95.2264 25.4419 95.104 25.6412 95.0408 25.9038L96.9032 26.0667ZM97.9004 24.6459L98.7923 24.7173L99.4285 27.4806L100.508 24.8674L101.38 24.9436L102.003 27.7058L103.089 25.0932L103.96 25.1694L102.359 28.615L101.474 28.5376L100.842 25.9556L99.778 28.3892L98.8933 28.3118L97.9004 24.6459ZM106.453 26.3593C106.289 26.2422 106.116 26.1467 105.935 26.0727C105.758 25.9992 105.592 25.9556 105.437 25.942C105.291 25.9292 105.171 25.9455 105.078 25.991C104.989 26.0324 104.94 26.1063 104.931 26.2127C104.921 26.3236 104.967 26.4147 105.068 26.4861C105.174 26.5535 105.341 26.6307 105.57 26.7177C105.812 26.8148 106.009 26.9081 106.162 26.9974C106.316 27.0823 106.444 27.203 106.546 27.3594C106.654 27.5118 106.697 27.7055 106.676 27.9405C106.646 28.2864 106.49 28.5408 106.207 28.7037C105.925 28.8667 105.582 28.9305 105.179 28.8952C104.904 28.8712 104.639 28.8056 104.385 28.6984C104.131 28.5869 103.92 28.4433 103.752 28.2678L104.105 27.6887C104.252 27.8401 104.433 27.9654 104.648 28.0646C104.863 28.1594 105.071 28.2155 105.27 28.233C105.43 28.247 105.558 28.2314 105.656 28.1863C105.759 28.1372 105.815 28.0573 105.825 27.9464C105.836 27.8222 105.788 27.7243 105.683 27.6525C105.577 27.5807 105.404 27.4963 105.162 27.3992C104.929 27.3073 104.74 27.2215 104.595 27.1418C104.45 27.0576 104.329 26.942 104.23 26.7948C104.131 26.6432 104.092 26.4544 104.112 26.2282C104.142 25.8779 104.292 25.6229 104.561 25.4632C104.834 25.2995 105.164 25.2345 105.55 25.2682C105.785 25.2888 106.012 25.3422 106.233 25.4285C106.457 25.5152 106.653 25.6262 106.82 25.7614L106.453 26.3593Z" fill="#12141D"/>
<path d="M31.9904 33.5735L36.0291 33.9269L35.2018 43.382L33.0677 43.1953L33.7365 35.5502L31.832 35.3835L31.9904 33.5735ZM37.5362 34.0587L44.9517 34.7075L44.8182 36.2338L40.3965 43.8365L38.1407 43.6391L42.4049 36.2813L39.2847 36.0083L39.1554 37.3309L37.2644 37.1654L37.5362 34.0587ZM52.1962 43.0722L52.0402 44.8552L44.9353 44.2336L45.0642 42.7613L48.8781 39.4609C49.2208 39.1733 49.4953 38.8888 49.7013 38.6074C49.9172 38.3178 50.035 38.0604 50.0547 37.8353C50.0807 37.5381 49.9837 37.2983 49.7638 37.1157C49.5536 36.9249 49.246 36.8118 48.8407 36.7763C48.4355 36.7409 47.9942 36.8066 47.5169 36.9735C47.0395 37.1405 46.5685 37.3896 46.104 37.721L45.406 36.0539C46.7298 35.2351 48.0311 34.8817 49.3098 34.9935C49.9401 35.0487 50.4893 35.2011 50.9575 35.4507C51.4264 35.6914 51.7798 36.0081 52.0177 36.401C52.2563 36.7848 52.3543 37.2198 52.3118 37.7061C52.27 38.1834 52.0691 38.6648 51.709 39.1505C51.349 39.6363 50.8548 40.1511 50.2265 40.695L47.8603 42.6929L52.1962 43.0722ZM60.2558 43.7773L60.0998 45.5603L52.9949 44.9387L53.1237 43.4664L56.9376 40.166C57.2804 39.8784 57.5548 39.5939 57.7609 39.3125C57.9768 39.0229 58.0946 38.7655 58.1143 38.5404C58.1403 38.2432 58.0433 38.0034 57.8234 37.8208C57.6132 37.63 57.3055 37.5169 56.9003 37.4814C56.4951 37.446 56.0538 37.5117 55.5764 37.6787C55.099 37.8456 54.6281 38.0948 54.1636 38.4261L53.4655 36.759C54.7894 35.9402 56.0906 35.5868 57.3693 35.6986C57.9997 35.7538 58.5489 35.9062 59.017 36.1558C59.486 36.3965 59.8394 36.7132 60.0772 37.1061C60.3158 37.4899 60.4139 37.925 60.3713 38.4112C60.3296 38.8885 60.1287 39.37 59.7686 39.8557C59.4085 40.3414 58.9143 40.8562 58.286 41.4001L55.9199 43.398L60.2558 43.7773ZM61.2738 36.1355L65.3125 36.4889L64.4853 45.944L62.3512 45.7573L63.02 38.1121L61.1155 37.9455L61.2738 36.1355Z" fill="#12141D"/>
</svg>
