<svg width="100" height="31" viewBox="0 0 100 31" fill="none" xmlns="http://www.w3.org/2000/svg">
<path d="M21.0279 1.50391L18.1982 2.49847L18.1826 10.1017C18.167 17.8137 18.193 19.1561 18.3591 20.1778C18.7849 22.7974 19.9064 25.0365 21.7548 26.9604C22.7049 27.9496 23.5876 28.6072 24.8285 29.2539C26.2823 30.0093 28.2397 30.5039 29.7662 30.5039H30.0621V27.4713V24.4333L29.5585 24.4006C28.8628 24.3572 28.1255 24.1452 27.4349 23.792C25.5554 22.8354 24.2989 20.9985 24.0445 18.8463C24.0133 18.5528 23.9874 17.3409 23.9874 15.8409V13.33H27.0248H30.0621V10.5039V7.67782H27.0248H23.9874V4.09086C23.9874 1.25391 23.9718 0.503908 23.9251 0.509342C23.8887 0.509342 22.5855 0.96043 21.0279 1.50391Z" fill="black"/>
<path d="M90.9654 1.50322L88.1357 2.49779V10.9978C88.1357 18.9108 88.1409 19.5358 88.2292 20.0413C88.6861 22.7369 89.6882 24.8184 91.4223 26.7097C92.4763 27.8511 93.4317 28.5902 94.7245 29.2532C96.1991 30.0087 97.6477 30.3945 99.3507 30.4869L99.9997 30.5195V27.4761V24.4326L99.4701 24.4C99.1742 24.3782 98.7588 24.3184 98.5407 24.2587C95.9602 23.563 94.1742 21.3837 93.9249 18.6119C93.899 18.2913 93.873 16.9706 93.873 15.6771V13.3293H96.9364H99.9997V10.5032V7.67714H96.9364H93.873V4.09018C93.873 2.11735 93.8574 0.503223 93.8367 0.508659C93.8107 0.508659 92.5231 0.959745 90.9654 1.50322Z" fill="black"/>
<path d="M6.69263 7.19319C4.91693 7.36167 3.20353 8.30732 2.03011 9.77471C-0.965732 13.5301 0.207684 19.1497 4.42887 21.2367C5.46729 21.753 6.30841 21.916 7.91796 21.916C9.1433 21.916 9.35618 21.9486 9.61059 22.1715C10.2181 22.7095 9.99481 23.6986 9.21599 23.9215C9.0758 23.9595 7.60125 23.9812 4.50675 23.9812H0V27.1334V30.291L5.05192 30.2693C9.57425 30.253 10.135 30.2421 10.4621 30.1606C12.0976 29.7475 13.4372 28.8997 14.4029 27.6715C15.7944 25.8943 16.324 23.666 15.8878 21.4323C15.3946 18.8997 13.6085 16.791 11.2513 15.9649C10.4102 15.6715 9.94289 15.6062 8.46314 15.5736C7.09761 15.541 6.98338 15.5247 6.72897 15.291C6.56802 15.1443 6.43821 14.8128 6.43821 14.5519C6.43821 14.1008 6.74455 13.666 7.15472 13.5465C7.27933 13.5138 8.76947 13.4921 11.3863 13.4921H15.4206V10.3128V7.13341L11.3084 7.13885C9.04465 7.14428 6.96781 7.17145 6.69263 7.19319Z" fill="black"/>
<path d="M42.6788 7.19361C40.7993 7.41643 38.8055 8.18274 37.2375 9.27513C35.3631 10.5849 33.9301 12.2697 32.9332 14.3349C32.4867 15.2588 32.2427 15.9382 32.009 16.8838C31.6456 18.373 31.656 18.1773 31.6352 24.4273L31.6144 30.0686H34.5272H37.4348V24.8077C37.4348 20.3403 37.4452 19.4762 37.5127 19.036C37.7567 17.4762 38.5823 15.9382 39.7141 14.9219C40.8927 13.8675 42.1388 13.3295 43.7328 13.1936L44.1326 13.1556V10.1447V7.13382L43.603 7.13926C43.3071 7.14469 42.8917 7.16643 42.6788 7.19361Z" fill="black"/>
<path d="M53.3234 7.50866C51.1063 7.70431 49.0866 8.56301 47.3057 10.0576C44.2631 12.6119 42.7574 16.9217 43.4843 21.0087C43.7387 22.4326 44.1593 23.6119 44.8499 24.8239C45.961 26.7641 47.4148 28.1663 49.4345 29.2315C50.7689 29.9326 52.6796 30.3945 54.2631 30.3945C55.6183 30.3945 57.3057 30.0304 58.5259 29.4652C58.7907 29.3456 59.0399 29.2315 59.0762 29.2152C59.123 29.1934 59.1385 29.2967 59.1385 29.6282V30.0684H62.0202H64.9018V18.7641V7.45975H62.0202H59.1385V8.05758C59.1385 8.38366 59.1282 8.6554 59.1178 8.6554C59.1074 8.6554 58.936 8.57931 58.7387 8.48692C57.1136 7.72605 55.0783 7.35649 53.3234 7.50866ZM55.0939 13.6282C56.1323 13.8184 57.0461 14.3076 57.8353 15.0902C58.5882 15.8456 59.1489 16.9761 59.3255 18.1119C59.6318 20.063 58.8218 22.1119 57.2953 23.2478C56.9007 23.5467 56.1479 23.938 55.7117 24.0793C54.8758 24.3456 53.8114 24.3728 52.9859 24.15C52.4823 24.0141 51.7034 23.6282 51.2777 23.3076C50.5716 22.775 49.8602 21.8565 49.5331 21.0576C49.206 20.2532 49.1437 19.9054 49.1489 18.9271C49.1489 17.9 49.2268 17.5141 49.5799 16.7261C49.855 16.1065 50.1095 15.7152 50.5612 15.2206C51.7398 13.9271 53.4532 13.3239 55.0939 13.6282Z" fill="black"/>
<path d="M76.4794 7.51913C74.2572 7.72022 72.144 8.64957 70.3683 10.193C69.3143 11.1115 68.1617 12.6767 67.6009 13.9539C66.874 15.5952 66.5625 17.1061 66.5625 18.9702C66.5625 21.9865 67.5594 24.6333 69.5272 26.8289C72.6009 30.2583 77.5594 31.3344 81.7442 29.4757C83.0578 28.8941 84.1949 28.0844 85.2281 27.0028C85.7889 26.4159 86.5002 25.5191 86.5002 25.3941C86.5002 25.3452 81.8117 21.9702 81.739 21.9702C81.7183 21.9702 81.6456 22.0517 81.5781 22.155C81.3548 22.4974 80.7266 23.1115 80.2904 23.4159C78.8263 24.4322 76.9259 24.5898 75.3579 23.818C74.3351 23.3235 73.5199 22.5246 72.9592 21.4757C72.5075 20.6387 72.2686 19.3615 72.3725 18.3887C72.6321 16.0789 74.0911 14.318 76.2614 13.6985C76.8533 13.53 78.0371 13.53 78.6809 13.6985C79.2105 13.8344 79.9529 14.1876 80.4047 14.5137C80.7473 14.7583 81.251 15.2474 81.5262 15.6061L81.7079 15.8452L84.0339 14.1387C85.3164 13.1985 86.386 12.4159 86.4171 12.3941C86.5002 12.3344 85.9083 11.568 85.2281 10.8561C83.5095 9.05174 81.4015 7.93761 79.0547 7.59522C78.3382 7.49196 77.1648 7.45391 76.4794 7.51913Z" fill="black"/>
</svg>
