<svg width="21" height="22" viewBox="0 0 21 22" fill="none" xmlns="http://www.w3.org/2000/svg">
<circle cx="10.6701" cy="11.2667" r="10.2861" fill="#008EFF"/>
<path d="M6.74753 15.6765C6.61178 15.6763 6.48238 15.619 6.39088 15.5188C6.2977 15.4193 6.2514 15.2848 6.26361 15.1491L6.38217 13.8454L11.8592 8.37031L13.5708 10.0815L8.09525 15.556L6.79157 15.6746C6.77657 15.676 6.76157 15.6765 6.74753 15.6765ZM13.9124 9.73932L12.2013 8.02818L13.2277 7.00179C13.3185 6.91092 13.4416 6.85986 13.5701 6.85986C13.6985 6.85986 13.8217 6.91092 13.9124 7.00179L14.9388 8.02818C15.0297 8.11895 15.0808 8.24212 15.0808 8.37056C15.0808 8.49899 15.0297 8.62216 14.9388 8.71293L13.9129 9.73884L13.9124 9.73932Z" fill="white"/>
</svg>
