<svg width="428" height="266" viewBox="0 0 428 266" fill="none" xmlns="http://www.w3.org/2000/svg">
<g filter="url(#filter0_d_1_491)">
<rect x="90.1729" y="69.1133" width="265.428" height="185.559" rx="6.67675" transform="rotate(5 90.1729 69.1133)" fill="white"/>
<rect x="127.957" y="137.47" width="204.413" height="0.295901" rx="0.147951" transform="rotate(5 127.957 137.47)" fill="#DAE8EF"/>
<rect x="126.371" y="155.599" width="204.413" height="0.295901" rx="0.147951" transform="rotate(5 126.371 155.599)" fill="#DAE8EF"/>
<rect x="124.785" y="173.728" width="204.413" height="0.295901" rx="0.147951" transform="rotate(5 124.785 173.728)" fill="#DAE8EF"/>
<rect x="123.199" y="191.856" width="204.413" height="0.295901" rx="0.147951" transform="rotate(5 123.199 191.856)" fill="#DAE8EF"/>
<rect x="121.613" y="209.985" width="204.413" height="0.295901" rx="0.147951" transform="rotate(5 121.613 209.985)" fill="#DAE8EF"/>
<rect x="120.027" y="228.113" width="204.413" height="0.295901" rx="0.147951" transform="rotate(5 120.027 228.113)" fill="#DAE8EF"/>
<path d="M129.755 229.114L151.686 212.839L170.621 202.054C171.327 201.652 172.101 201.382 172.904 201.258L189.832 198.637C191.378 198.398 192.958 198.709 194.298 199.516L209.313 208.56C210.03 208.992 210.822 209.285 211.648 209.424L228.356 212.241C229.777 212.48 231.238 212.254 232.519 211.595L248.81 203.218L269.176 196.111C270.324 195.711 271.34 195.005 272.116 194.069L292.352 169.667C293.064 168.809 293.979 168.142 295.014 167.729L316.306 159.221" stroke="#2B59FF" stroke-width="2.00302"/>
<g opacity="0.6">
<path d="M94.9839 222.882L97.3704 223.09L96.8816 228.678L95.6205 228.567L96.0158 224.05L94.8904 223.951L94.9839 222.882ZM101.003 223.36C101.785 223.428 102.365 223.726 102.742 224.252C103.12 224.778 103.269 225.499 103.189 226.414C103.109 227.324 102.837 228.008 102.374 228.466C101.911 228.919 101.288 229.111 100.506 229.043C99.7182 228.974 99.133 228.676 98.7501 228.149C98.3731 227.618 98.2243 226.897 98.3039 225.987C98.384 225.072 98.6556 224.388 99.1188 223.935C99.5873 223.483 100.215 223.291 101.003 223.36ZM100.918 224.326C100.519 224.291 100.214 224.414 100.001 224.696C99.789 224.978 99.6542 225.446 99.597 226.1C99.5402 226.749 99.5916 227.234 99.7513 227.553C99.9115 227.868 100.191 228.042 100.59 228.077C100.979 228.111 101.279 227.987 101.491 227.706C101.704 227.418 101.839 226.95 101.896 226.301C101.953 225.647 101.901 225.162 101.741 224.848C101.581 224.534 101.307 224.36 100.918 224.326ZM106.631 223.852C107.413 223.921 107.993 224.218 108.37 224.744C108.748 225.271 108.896 225.991 108.816 226.907C108.737 227.817 108.465 228.501 108.001 228.959C107.538 229.411 106.916 229.604 106.133 229.535C105.346 229.466 104.761 229.168 104.378 228.642C104.001 228.11 103.852 227.389 103.932 226.479C104.012 225.564 104.283 224.88 104.746 224.427C105.215 223.975 105.843 223.783 106.631 223.852ZM106.546 224.818C106.147 224.783 105.841 224.907 105.629 225.188C105.417 225.47 105.282 225.938 105.225 226.592C105.168 227.242 105.219 227.726 105.379 228.046C105.539 228.36 105.819 228.535 106.218 228.569C106.606 228.603 106.907 228.48 107.119 228.198C107.332 227.911 107.467 227.443 107.523 226.794C107.581 226.139 107.529 225.655 107.369 225.34C107.209 225.026 106.934 224.852 106.546 224.818Z" fill="#12141D"/>
<path d="M99.0844 209.712L98.9922 210.766L94.7939 210.399L94.87 209.529L97.1237 207.578C97.3262 207.408 97.4884 207.24 97.6102 207.074C97.7377 206.903 97.8073 206.751 97.819 206.618C97.8343 206.442 97.777 206.3 97.6471 206.193C97.5229 206.08 97.3411 206.013 97.1016 205.992C96.8622 205.971 96.6014 206.01 96.3193 206.109C96.0372 206.207 95.759 206.354 95.4845 206.55L95.072 205.565C95.8543 205.081 96.6232 204.872 97.3788 204.939C97.7513 204.971 98.0758 205.061 98.3524 205.209C98.6295 205.351 98.8384 205.538 98.9789 205.77C99.1199 205.997 99.1778 206.254 99.1527 206.541C99.128 206.823 99.0093 207.108 98.7965 207.395C98.5838 207.682 98.2917 207.986 97.9205 208.308L96.5223 209.488L99.0844 209.712ZM102.572 205.401C103.354 205.469 103.934 205.767 104.311 206.293C104.689 206.819 104.837 207.54 104.757 208.455C104.678 209.365 104.406 210.049 103.942 210.507C103.479 210.96 102.857 211.152 102.074 211.084C101.287 211.015 100.702 210.717 100.319 210.19C99.9417 209.659 99.793 208.938 99.8726 208.028C99.9527 207.113 100.224 206.429 100.687 205.976C101.156 205.524 101.784 205.332 102.572 205.401ZM102.487 206.367C102.088 206.332 101.782 206.455 101.57 206.737C101.358 207.019 101.223 207.487 101.166 208.141C101.109 208.79 101.16 209.275 101.32 209.594C101.48 209.909 101.76 210.083 102.159 210.118C102.547 210.152 102.848 210.028 103.06 209.747C103.273 209.46 103.408 208.991 103.464 208.342C103.522 207.688 103.47 207.203 103.31 206.889C103.15 206.575 102.875 206.401 102.487 206.367ZM108.199 205.893C108.981 205.962 109.561 206.259 109.939 206.785C110.316 207.312 110.465 208.033 110.385 208.948C110.305 209.858 110.034 210.542 109.57 211C109.107 211.452 108.484 211.645 107.702 211.576C106.914 211.507 106.329 211.209 105.946 210.683C105.569 210.151 105.421 209.43 105.5 208.52C105.58 207.605 105.852 206.921 106.315 206.468C106.784 206.016 107.412 205.824 108.199 205.893ZM108.115 206.859C107.716 206.824 107.41 206.948 107.198 207.229C106.985 207.511 106.851 207.979 106.793 208.633C106.736 209.283 106.788 209.767 106.948 210.087C107.108 210.401 107.387 210.576 107.787 210.61C108.175 210.644 108.475 210.521 108.688 210.239C108.9 209.952 109.035 209.484 109.092 208.835C109.149 208.18 109.098 207.696 108.938 207.381C108.777 207.067 108.503 206.893 108.115 206.859Z" fill="#12141D"/>
<path d="M99.2565 188.717C99.7404 188.823 100.114 189.022 100.379 189.314C100.648 189.605 100.764 189.964 100.727 190.39C100.696 190.741 100.575 191.047 100.365 191.307C100.16 191.562 99.8809 191.752 99.5269 191.877C99.1786 191.997 98.7784 192.037 98.3261 191.997C97.9376 191.963 97.5543 191.871 97.1761 191.72C96.8037 191.564 96.4931 191.376 96.2443 191.156L96.8128 190.264C97.0249 190.476 97.2595 190.644 97.5167 190.768C97.7739 190.893 98.0409 190.967 98.3176 190.991C98.6688 191.022 98.9462 190.976 99.1499 190.855C99.354 190.728 99.467 190.539 99.4889 190.289C99.5108 190.039 99.4315 189.842 99.2511 189.697C99.0712 189.548 98.803 189.457 98.4465 189.426L97.5445 189.347L97.6074 188.629L99.1222 187.402L96.8794 187.206L96.9608 186.183L100.784 186.518L100.718 187.276L98.9726 188.652L99.2565 188.717ZM104.201 186.777C104.983 186.845 105.563 187.142 105.94 187.669C106.318 188.195 106.467 188.916 106.387 189.831C106.307 190.741 106.035 191.425 105.572 191.883C105.109 192.336 104.486 192.528 103.704 192.46C102.916 192.391 102.331 192.093 101.948 191.566C101.571 191.034 101.422 190.314 101.502 189.404C101.582 188.489 101.854 187.805 102.317 187.352C102.785 186.899 103.413 186.708 104.201 186.777ZM104.116 187.742C103.717 187.708 103.412 187.831 103.199 188.113C102.987 188.394 102.852 188.862 102.795 189.517C102.738 190.166 102.79 190.65 102.949 190.97C103.109 191.284 103.389 191.459 103.788 191.494C104.177 191.528 104.477 191.404 104.689 191.122C104.902 190.835 105.037 190.367 105.094 189.718C105.151 189.063 105.099 188.579 104.939 188.265C104.779 187.951 104.505 187.776 104.116 187.742ZM109.828 187.269C110.611 187.337 111.191 187.635 111.568 188.161C111.946 188.687 112.094 189.408 112.014 190.323C111.935 191.233 111.663 191.917 111.199 192.375C110.736 192.828 110.113 193.02 109.331 192.952C108.544 192.883 107.959 192.585 107.576 192.058C107.199 191.527 107.05 190.806 107.13 189.896C107.21 188.981 107.481 188.297 107.944 187.844C108.413 187.392 109.041 187.2 109.828 187.269ZM109.744 188.235C109.345 188.2 109.039 188.323 108.827 188.605C108.615 188.887 108.48 189.355 108.423 190.009C108.366 190.658 108.417 191.143 108.577 191.462C108.737 191.777 109.017 191.951 109.416 191.986C109.804 192.02 110.105 191.896 110.317 191.615C110.53 191.328 110.664 190.86 110.721 190.21C110.779 189.556 110.727 189.071 110.567 188.757C110.407 188.443 110.132 188.269 109.744 188.235Z" fill="#12141D"/>
<path d="M102.424 171.912L102.336 172.926L101.569 172.859L101.459 174.12L100.302 174.018L100.412 172.757L97.8101 172.53L97.8876 171.644L99.8966 168.353L101.094 168.458L99.1998 171.63L100.501 171.744L100.609 170.507L101.766 170.608L101.658 171.845L102.424 171.912ZM105.796 168.821C106.578 168.889 107.158 169.187 107.535 169.713C107.913 170.239 108.061 170.96 107.981 171.875C107.902 172.785 107.63 173.469 107.166 173.927C106.703 174.38 106.081 174.572 105.298 174.504C104.511 174.435 103.926 174.137 103.543 173.61C103.166 173.079 103.017 172.358 103.097 171.448C103.177 170.533 103.448 169.849 103.911 169.396C104.38 168.944 105.008 168.752 105.796 168.821ZM105.711 169.787C105.312 169.752 105.006 169.875 104.794 170.157C104.582 170.439 104.447 170.907 104.39 171.561C104.333 172.21 104.384 172.695 104.544 173.014C104.704 173.329 104.984 173.503 105.383 173.538C105.771 173.572 106.072 173.448 106.284 173.167C106.497 172.88 106.632 172.411 106.688 171.762C106.746 171.108 106.694 170.623 106.534 170.309C106.374 169.995 106.099 169.821 105.711 169.787ZM111.423 169.313C112.205 169.382 112.785 169.679 113.163 170.205C113.54 170.732 113.689 171.453 113.609 172.368C113.529 173.278 113.258 173.962 112.794 174.42C112.331 174.872 111.708 175.065 110.926 174.996C110.138 174.927 109.553 174.629 109.17 174.103C108.793 173.571 108.645 172.85 108.724 171.94C108.804 171.025 109.076 170.341 109.539 169.888C110.008 169.436 110.636 169.244 111.423 169.313ZM111.339 170.279C110.94 170.244 110.634 170.368 110.422 170.649C110.209 170.931 110.075 171.399 110.017 172.054C109.96 172.703 110.012 173.187 110.172 173.507C110.332 173.821 110.611 173.996 111.01 174.03C111.399 174.064 111.699 173.941 111.912 173.659C112.124 173.372 112.259 172.904 112.316 172.255C112.373 171.6 112.322 171.116 112.162 170.801C112.001 170.487 111.727 170.313 111.339 170.279Z" fill="#12141D"/>
<path d="M101.959 151.818C102.385 151.855 102.754 151.96 103.066 152.132C103.378 152.304 103.61 152.526 103.764 152.796C103.917 153.067 103.979 153.367 103.95 153.697C103.917 154.08 103.794 154.41 103.582 154.687C103.376 154.958 103.096 155.159 102.741 155.289C102.392 155.414 101.995 155.457 101.548 155.417C101.186 155.386 100.813 155.292 100.43 155.135C100.053 154.973 99.7243 154.778 99.444 154.55L100.013 153.651C100.231 153.863 100.468 154.033 100.724 154.163C100.981 154.293 101.24 154.369 101.501 154.392C101.815 154.419 102.068 154.369 102.262 154.241C102.456 154.108 102.564 153.917 102.586 153.666C102.607 153.422 102.533 153.228 102.363 153.084C102.199 152.936 101.942 152.846 101.59 152.815C101.393 152.798 101.132 152.781 100.807 152.763C100.487 152.74 100.244 152.73 100.078 152.731L100.349 149.626L104.021 149.948L103.929 151.001L101.422 150.782L101.336 151.764L101.959 151.818ZM107.402 150.195C108.184 150.264 108.764 150.561 109.141 151.087C109.519 151.614 109.667 152.334 109.587 153.25C109.508 154.159 109.236 154.843 108.772 155.302C108.309 155.754 107.687 155.946 106.904 155.878C106.117 155.809 105.532 155.511 105.149 154.985C104.772 154.453 104.623 153.732 104.703 152.822C104.783 151.907 105.054 151.223 105.518 150.77C105.986 150.318 106.614 150.126 107.402 150.195ZM107.317 151.161C106.918 151.126 106.612 151.249 106.4 151.531C106.188 151.813 106.053 152.281 105.996 152.935C105.939 153.585 105.99 154.069 106.15 154.388C106.31 154.703 106.59 154.877 106.989 154.912C107.377 154.946 107.678 154.822 107.89 154.541C108.103 154.254 108.238 153.786 108.294 153.136C108.352 152.482 108.3 151.998 108.14 151.683C107.98 151.369 107.706 151.195 107.317 151.161ZM113.029 150.687C113.811 150.756 114.391 151.053 114.769 151.58C115.146 152.106 115.295 152.827 115.215 153.742C115.135 154.652 114.864 155.336 114.4 155.794C113.937 156.247 113.314 156.439 112.532 156.37C111.745 156.301 111.159 156.004 110.776 155.477C110.399 154.945 110.251 154.224 110.33 153.315C110.41 152.399 110.682 151.715 111.145 151.263C111.614 150.81 112.242 150.619 113.029 150.687ZM112.945 151.653C112.546 151.618 112.24 151.742 112.028 152.023C111.815 152.305 111.681 152.773 111.623 153.428C111.566 154.077 111.618 154.561 111.778 154.881C111.938 155.195 112.217 155.37 112.617 155.405C113.005 155.439 113.305 155.315 113.518 155.033C113.73 154.746 113.865 154.278 113.922 153.629C113.979 152.974 113.928 152.49 113.768 152.176C113.607 151.861 113.333 151.687 112.945 151.653Z" fill="#12141D"/>
<path d="M106.474 135.894C106.423 136.474 106.216 136.912 105.852 137.207C105.494 137.503 105.022 137.625 104.437 137.574C103.713 137.51 103.129 137.167 102.685 136.544L103.346 135.701C103.52 135.92 103.706 136.092 103.904 136.216C104.108 136.341 104.297 136.411 104.473 136.427C104.686 136.445 104.856 136.396 104.984 136.279C105.113 136.161 105.187 135.985 105.207 135.751L105.443 133.053L103.52 132.885L103.613 131.816L106.806 132.095L106.474 135.894ZM109.912 137.996L109.956 137.494C109.797 137.662 109.599 137.784 109.361 137.86C109.124 137.936 108.857 137.96 108.559 137.934C108.106 137.895 107.758 137.741 107.513 137.473C107.269 137.2 107.164 136.863 107.199 136.464C107.235 136.06 107.403 135.758 107.705 135.559C108.012 135.356 108.427 135.274 108.949 135.314L110.13 135.418L110.137 135.338C110.157 135.109 110.095 134.927 109.952 134.791C109.814 134.65 109.598 134.567 109.306 134.541C108.907 134.506 108.47 134.594 107.996 134.805L107.687 133.925C108.042 133.785 108.372 133.688 108.677 133.634C108.982 133.58 109.313 133.569 109.67 133.6C110.244 133.65 110.677 133.825 110.967 134.124C111.263 134.423 111.392 134.815 111.355 135.3L111.118 138.102L109.912 137.996ZM108.979 137.086C109.234 137.109 109.46 137.067 109.657 136.961C109.854 136.855 109.979 136.71 110.033 136.527L110.066 136.144L109.101 136.06C108.861 136.039 108.679 136.063 108.555 136.132C108.437 136.197 108.371 136.315 108.356 136.485C108.341 136.65 108.388 136.788 108.496 136.899C108.61 137.006 108.771 137.068 108.979 137.086ZM115.27 134.09C115.749 134.132 116.117 134.314 116.373 134.637C116.634 134.96 116.743 135.372 116.699 135.872L116.463 138.57L115.234 138.462L115.438 136.123C115.462 135.852 115.404 135.632 115.263 135.465C115.128 135.292 114.93 135.194 114.669 135.171C114.365 135.15 114.117 135.236 113.923 135.428C113.73 135.615 113.619 135.868 113.591 136.187L113.406 138.302L112.177 138.195L112.552 133.9L113.782 134.008L113.716 134.758C114.06 134.263 114.578 134.04 115.27 134.09Z" fill="#12141D"/>
</g>
<g opacity="0.6">
<path d="M141.495 242.518L145.135 242.837L145.066 243.53L142.201 243.28L142.04 245.115L144.618 245.341L144.558 246.035L141.98 245.81L141.773 248.172L141.007 248.105L141.495 242.518ZM147.535 244.398C148.189 244.455 148.667 244.693 148.968 245.11C149.27 245.523 149.391 246.072 149.331 246.759C149.322 246.865 149.312 246.945 149.302 246.997L145.966 246.706C145.991 247.088 146.122 247.403 146.358 247.649C146.599 247.895 146.908 248.035 147.286 248.068C147.536 248.09 147.772 248.065 147.992 247.993C148.218 247.921 148.419 247.81 148.593 247.659L148.963 248.118C148.736 248.323 148.47 248.474 148.167 248.571C147.864 248.668 147.534 248.701 147.177 248.669C146.762 248.633 146.4 248.513 146.091 248.309C145.787 248.1 145.559 247.825 145.407 247.485C145.26 247.145 145.204 246.768 145.24 246.353C145.277 245.938 145.397 245.578 145.6 245.274C145.81 244.965 146.082 244.735 146.417 244.582C146.752 244.423 147.125 244.362 147.535 244.398ZM148.69 246.365C148.702 245.98 148.601 245.668 148.386 245.429C148.171 245.185 147.872 245.047 147.489 245.013C147.117 244.981 146.795 245.065 146.526 245.267C146.261 245.469 146.089 245.757 146.008 246.13L148.69 246.365ZM152.882 244.866C153.275 244.9 153.619 245.021 153.911 245.229C154.204 245.437 154.422 245.711 154.563 246.05C154.705 246.39 154.758 246.77 154.721 247.19C154.685 247.605 154.567 247.967 154.369 248.277C154.176 248.582 153.917 248.811 153.593 248.965C153.274 249.114 152.918 249.172 152.524 249.137C152.167 249.106 151.86 249.004 151.602 248.831C151.343 248.659 151.149 248.427 151.019 248.137L150.946 248.975L150.203 248.91L150.722 242.988L151.464 243.053L151.242 245.591C151.42 245.328 151.649 245.133 151.928 245.007C152.213 244.882 152.53 244.835 152.882 244.866ZM152.421 248.477C152.692 248.5 152.94 248.458 153.164 248.349C153.393 248.24 153.577 248.076 153.714 247.858C153.856 247.64 153.94 247.387 153.965 247.1C153.99 246.818 153.951 246.557 153.848 246.317C153.746 246.078 153.594 245.885 153.392 245.739C153.191 245.592 152.954 245.507 152.683 245.484C152.411 245.46 152.161 245.502 151.932 245.611C151.708 245.72 151.524 245.884 151.382 246.102C151.24 246.32 151.156 246.57 151.131 246.852C151.106 247.145 151.144 247.411 151.247 247.65C151.349 247.884 151.502 248.075 151.703 248.221C151.91 248.368 152.15 248.453 152.421 248.477Z" fill="#12141D"/>
<path d="M121.045 243.743C120.997 244.291 120.813 244.704 120.494 244.982C120.175 245.254 119.755 245.367 119.234 245.322C118.92 245.294 118.633 245.199 118.374 245.037C118.114 244.875 117.895 244.658 117.715 244.385L118.142 243.827C118.299 244.05 118.477 244.226 118.675 244.356C118.878 244.481 119.084 244.553 119.291 244.571C119.579 244.596 119.807 244.53 119.976 244.373C120.146 244.211 120.245 243.971 120.272 243.651L120.55 240.483L118.578 240.31L118.64 239.608L121.385 239.848L121.045 243.743ZM124.873 245.783L124.925 245.192C124.575 245.58 124.064 245.744 123.394 245.686C123.101 245.66 122.848 245.582 122.634 245.45C122.426 245.32 122.269 245.15 122.164 244.943C122.064 244.736 122.025 244.51 122.046 244.265C122.079 243.887 122.244 243.601 122.54 243.407C122.841 243.208 123.242 243.128 123.743 243.167L125.084 243.284L125.101 243.084C125.127 242.787 125.054 242.55 124.882 242.374C124.715 242.193 124.457 242.087 124.105 242.056C123.68 242.019 123.233 242.133 122.765 242.398L122.498 241.859C122.819 241.689 123.11 241.573 123.373 241.51C123.642 241.442 123.954 241.424 124.311 241.455C124.838 241.501 125.233 241.667 125.498 241.953C125.763 242.234 125.878 242.606 125.843 243.069L125.608 245.847L124.873 245.783ZM123.599 245.084C123.945 245.115 124.245 245.058 124.499 244.914C124.759 244.765 124.924 244.554 124.997 244.282L125.034 243.859L123.796 243.75C123.461 243.721 123.207 243.75 123.033 243.836C122.864 243.924 122.771 244.076 122.752 244.294C122.732 244.513 122.8 244.693 122.954 244.835C123.107 244.977 123.323 245.06 123.599 245.084ZM129.651 241.922C130.146 241.966 130.522 242.146 130.778 242.463C131.035 242.775 131.141 243.187 131.096 243.697L130.868 246.307L130.126 246.242L130.336 243.832C130.368 243.476 130.291 243.19 130.106 242.975C129.927 242.756 129.661 242.631 129.31 242.6C128.932 242.572 128.613 242.668 128.352 242.886C128.098 243.1 127.938 243.394 127.873 243.769L127.675 246.028L126.933 245.963L127.302 241.741L128.045 241.806L127.966 242.7C128.301 242.123 128.863 241.864 129.651 241.922Z" fill="#12141D"/>
<path d="M165.257 244.236L166.166 244.315L167.866 248.421L170.237 244.672L171.155 244.752L170.666 250.339L169.948 250.276L170.33 245.814L168.004 249.511L167.533 249.47L165.868 245.423L165.478 249.885L164.768 249.823L165.257 244.236ZM174.772 250.698L174.824 250.108C174.474 250.495 173.963 250.66 173.293 250.601C173 250.575 172.747 250.497 172.533 250.366C172.325 250.235 172.168 250.066 172.063 249.858C171.963 249.651 171.924 249.425 171.945 249.18C171.978 248.802 172.143 248.517 172.439 248.323C172.74 248.124 173.141 248.044 173.642 248.082L174.983 248.199L175 248C175.026 247.702 174.953 247.465 174.781 247.289C174.615 247.108 174.356 247.002 174.005 246.972C173.579 246.934 173.132 247.048 172.664 247.313L172.397 246.775C172.718 246.604 173.009 246.488 173.272 246.425C173.541 246.357 173.853 246.339 174.21 246.37C174.737 246.416 175.132 246.582 175.397 246.868C175.662 247.149 175.777 247.521 175.742 247.984L175.507 250.763L174.772 250.698ZM173.498 250C173.844 250.03 174.144 249.973 174.398 249.829C174.658 249.68 174.824 249.47 174.896 249.197L174.933 248.774L173.695 248.666C173.36 248.636 173.106 248.665 172.932 248.752C172.763 248.839 172.67 248.992 172.651 249.21C172.632 249.428 172.699 249.608 172.853 249.75C173.006 249.892 173.222 249.975 173.498 250ZM177.864 247.631C178.029 247.34 178.246 247.128 178.515 246.996C178.784 246.859 179.095 246.803 179.446 246.828L179.383 247.547C178.954 247.493 178.596 247.574 178.309 247.791C178.022 248.007 177.842 248.315 177.769 248.717L177.574 250.943L176.832 250.878L177.201 246.656L177.944 246.721L177.864 247.631Z" fill="#12141D"/>
<path d="M192.192 251.977L191.72 250.568L188.775 250.31L188.073 251.616L187.267 251.546L190.238 246.176L191.036 246.246L193.022 252.049L192.192 251.977ZM189.139 249.642L191.485 249.848L190.542 247.031L189.139 249.642ZM196.479 248.073C196.873 248.107 197.216 248.229 197.509 248.436C197.802 248.644 198.019 248.918 198.161 249.258C198.303 249.597 198.355 249.977 198.319 250.397C198.282 250.812 198.165 251.175 197.966 251.484C197.773 251.789 197.514 252.019 197.19 252.173C196.871 252.322 196.515 252.379 196.121 252.344C195.765 252.313 195.457 252.211 195.199 252.039C194.941 251.866 194.747 251.634 194.616 251.344L194.408 253.731L193.665 253.666L194.17 247.895L194.913 247.96L194.839 248.798C195.018 248.535 195.247 248.34 195.526 248.215C195.81 248.089 196.128 248.042 196.479 248.073ZM196.018 251.684C196.29 251.708 196.537 251.665 196.761 251.556C196.991 251.447 197.174 251.284 197.311 251.065C197.453 250.847 197.537 250.594 197.562 250.307C197.587 250.025 197.548 249.764 197.446 249.525C197.343 249.285 197.191 249.092 196.99 248.946C196.788 248.8 196.552 248.715 196.28 248.691C196.009 248.667 195.758 248.71 195.529 248.818C195.305 248.927 195.122 249.091 194.979 249.309C194.837 249.527 194.754 249.777 194.729 250.059C194.703 250.352 194.742 250.618 194.844 250.857C194.947 251.092 195.099 251.282 195.301 251.428C195.508 251.575 195.747 251.66 196.018 251.684ZM200.202 249.34C200.367 249.048 200.584 248.837 200.853 248.705C201.123 248.568 201.433 248.512 201.785 248.537L201.722 249.255C201.292 249.202 200.934 249.283 200.647 249.499C200.36 249.715 200.18 250.024 200.107 250.425L199.913 252.652L199.17 252.587L199.54 248.365L200.282 248.43L200.202 249.34Z" fill="#12141D"/>
<path d="M212.259 247.8L213.169 247.879L214.869 251.985L217.24 248.236L218.157 248.316L217.669 253.903L216.95 253.84L217.333 249.378L215.007 253.075L214.536 253.034L212.871 248.987L212.481 253.449L211.77 253.387L212.259 247.8ZM221.775 254.262L221.826 253.672C221.476 254.059 220.966 254.224 220.295 254.165C220.003 254.139 219.75 254.061 219.536 253.93C219.327 253.799 219.171 253.63 219.065 253.422C218.966 253.215 218.926 252.989 218.948 252.744C218.981 252.366 219.145 252.081 219.441 251.887C219.743 251.688 220.144 251.608 220.644 251.646L221.985 251.763L222.003 251.564C222.029 251.266 221.956 251.029 221.783 250.853C221.617 250.672 221.358 250.566 221.007 250.536C220.581 250.498 220.134 250.612 219.666 250.877L219.4 250.339C219.72 250.168 220.012 250.052 220.275 249.989C220.543 249.921 220.856 249.903 221.212 249.934C221.739 249.98 222.135 250.146 222.399 250.432C222.664 250.713 222.779 251.085 222.744 251.548L222.509 254.326L221.775 254.262ZM220.501 253.564C220.847 253.594 221.147 253.537 221.4 253.393C221.66 253.244 221.826 253.034 221.898 252.761L221.935 252.338L220.698 252.23C220.363 252.2 220.108 252.229 219.934 252.316C219.766 252.403 219.672 252.556 219.653 252.774C219.634 252.992 219.701 253.172 219.855 253.314C220.009 253.456 220.224 253.539 220.501 253.564ZM225.111 255.157C224.949 255.47 224.749 255.699 224.512 255.845C224.279 255.991 224.014 256.051 223.716 256.025C223.535 256.009 223.372 255.968 223.228 255.901C223.083 255.835 222.947 255.74 222.818 255.616L223.189 255.062C223.363 255.211 223.546 255.294 223.738 255.311C224.057 255.339 224.312 255.179 224.504 254.831L224.696 254.47L223.313 250.142L224.096 250.211L225.14 253.712L226.706 250.439L227.464 250.505L225.111 255.157Z" fill="#12141D"/>
<path d="M239.883 255.087C239.835 255.635 239.652 256.048 239.332 256.326C239.014 256.598 238.594 256.712 238.072 256.666C237.758 256.639 237.472 256.544 237.212 256.382C236.953 256.22 236.733 256.002 236.554 255.729L236.98 255.171C237.138 255.394 237.315 255.57 237.513 255.7C237.717 255.825 237.922 255.897 238.13 255.915C238.417 255.94 238.645 255.874 238.815 255.718C238.984 255.556 239.083 255.315 239.111 254.996L239.388 251.827L237.417 251.654L237.478 250.952L240.224 251.192L239.883 255.087ZM245.239 253.006L244.869 257.229L244.119 257.163L244.197 256.269C243.868 256.846 243.32 257.106 242.552 257.05C242.063 257.007 241.692 256.83 241.441 256.518C241.19 256.202 241.086 255.788 241.131 255.277L241.359 252.667L242.11 252.733L241.899 255.143C241.868 255.499 241.939 255.787 242.113 256.006C242.292 256.22 242.553 256.342 242.893 256.372C243.287 256.401 243.611 256.29 243.863 256.039C244.122 255.782 244.269 255.442 244.307 255.016L244.488 252.941L245.239 253.006ZM249.035 253.314C249.53 253.358 249.906 253.538 250.162 253.855C250.419 254.167 250.525 254.579 250.48 255.089L250.252 257.699L249.51 257.635L249.721 255.224C249.752 254.868 249.675 254.582 249.49 254.367C249.311 254.148 249.046 254.023 248.694 253.992C248.316 253.965 247.997 254.06 247.736 254.278C247.482 254.492 247.322 254.786 247.257 255.161L247.059 257.42L246.317 257.355L246.686 253.133L247.429 253.198L247.351 254.092C247.685 253.515 248.247 253.256 249.035 253.314Z" fill="#12141D"/>
<path d="M263.568 256.74C263.52 257.288 263.336 257.701 263.017 257.979C262.698 258.251 262.278 258.365 261.757 258.319C261.443 258.292 261.156 258.197 260.897 258.035C260.638 257.873 260.418 257.655 260.238 257.382L260.665 256.824C260.823 257.047 261 257.223 261.198 257.353C261.401 257.478 261.607 257.55 261.814 257.568C262.102 257.593 262.33 257.527 262.499 257.371C262.669 257.209 262.768 256.968 262.796 256.649L263.073 253.48L261.101 253.307L261.163 252.605L263.909 252.845L263.568 256.74ZM268.923 254.659L268.554 258.882L267.804 258.816L267.882 257.922C267.552 258.499 267.004 258.759 266.237 258.703C265.747 258.66 265.377 258.483 265.125 258.171C264.874 257.855 264.771 257.441 264.816 256.93L265.044 254.32L265.794 254.386L265.584 256.796C265.552 257.153 265.624 257.44 265.798 257.659C265.977 257.873 266.237 257.995 266.578 258.025C266.972 258.054 267.295 257.943 267.548 257.692C267.806 257.436 267.954 257.095 267.991 256.669L268.173 254.594L268.923 254.659ZM270.56 253.089L271.302 253.154L270.784 259.077L270.042 259.012L270.56 253.089Z" fill="#12141D"/>
<path d="M285.683 260.167L285.211 258.759L282.265 258.501L281.564 259.807L280.758 259.737L283.729 254.367L284.527 254.436L286.513 260.24L285.683 260.167ZM282.629 257.833L284.976 258.039L284.032 255.222L282.629 257.833ZM291.138 256.39L290.769 260.612L290.019 260.547L290.097 259.653C289.767 260.23 289.219 260.49 288.452 260.434C287.963 260.391 287.592 260.214 287.34 259.902C287.089 259.585 286.986 259.172 287.031 258.661L287.259 256.051L288.009 256.116L287.799 258.527C287.767 258.883 287.839 259.171 288.013 259.39C288.192 259.604 288.452 259.726 288.793 259.756C289.187 259.785 289.51 259.674 289.763 259.423C290.021 259.166 290.169 258.825 290.206 258.4L290.388 256.324L291.138 256.39ZM296.322 256.844L295.99 260.635C295.954 261.039 295.833 261.385 295.626 261.673C295.423 261.961 295.153 262.17 294.815 262.301C294.476 262.438 294.091 262.487 293.66 262.45C293.037 262.395 292.474 262.148 291.971 261.707L292.346 261.193C292.539 261.381 292.743 261.525 292.96 261.624C293.176 261.729 293.417 261.793 293.683 261.816C294.119 261.855 294.478 261.763 294.761 261.541C295.043 261.319 295.202 261.003 295.238 260.593L295.289 260.003C295.118 260.245 294.898 260.427 294.63 260.548C294.363 260.664 294.064 260.708 293.734 260.679C293.356 260.646 293.029 260.531 292.751 260.335C292.479 260.135 292.276 259.873 292.144 259.55C292.011 259.228 291.962 258.867 291.997 258.468C292.032 258.074 292.142 257.733 292.328 257.443C292.514 257.154 292.759 256.937 293.061 256.792C293.368 256.647 293.711 256.591 294.089 256.624C294.424 256.653 294.711 256.748 294.949 256.908C295.192 257.069 295.377 257.284 295.504 257.552L295.571 256.778L296.322 256.844ZM293.93 260.093C294.191 260.116 294.428 260.075 294.641 259.97C294.853 259.865 295.025 259.711 295.155 259.508C295.292 259.3 295.372 259.061 295.395 258.789C295.42 258.513 295.382 258.263 295.284 258.04C295.191 257.812 295.049 257.628 294.858 257.488C294.666 257.348 294.44 257.266 294.179 257.243C293.919 257.22 293.679 257.261 293.461 257.365C293.248 257.47 293.074 257.626 292.937 257.834C292.802 258.037 292.722 258.277 292.698 258.553C292.667 258.969 292.764 259.321 292.991 259.608C293.218 259.896 293.531 260.058 293.93 260.093Z" fill="#12141D"/>
<path d="M309.02 258.342C308.774 258.154 308.514 258.008 308.238 257.904C307.969 257.794 307.718 257.73 307.483 257.709C307.159 257.681 306.893 257.722 306.684 257.832C306.482 257.938 306.372 258.1 306.352 258.318C306.335 258.515 306.38 258.682 306.485 258.82C306.592 258.953 306.727 259.064 306.891 259.153C307.055 259.237 307.284 259.34 307.579 259.463C307.947 259.613 308.243 259.751 308.468 259.878C308.693 260.005 308.878 260.182 309.025 260.409C309.171 260.631 309.23 260.915 309.199 261.261C309.171 261.58 309.059 261.852 308.863 262.076C308.671 262.301 308.413 262.466 308.087 262.571C307.768 262.672 307.406 262.705 307.001 262.669C306.591 262.634 306.199 262.519 305.825 262.325C305.45 262.132 305.134 261.889 304.875 261.599L305.276 260.966C305.519 261.25 305.8 261.479 306.117 261.651C306.44 261.819 306.759 261.916 307.073 261.944C307.445 261.976 307.744 261.93 307.97 261.805C308.201 261.675 308.327 261.485 308.349 261.235C308.366 261.038 308.322 260.871 308.216 260.733C308.11 260.595 307.97 260.481 307.796 260.39C307.627 260.301 307.394 260.197 307.099 260.08C306.736 259.936 306.443 259.8 306.218 259.673C305.993 259.546 305.807 259.372 305.66 259.15C305.519 258.929 305.463 258.648 305.493 258.307C305.519 258.009 305.624 257.753 305.809 257.538C305.994 257.324 306.241 257.169 306.55 257.072C306.859 256.976 307.21 256.945 307.604 256.98C307.939 257.009 308.262 257.088 308.572 257.217C308.888 257.341 309.164 257.497 309.4 257.684L309.02 258.342ZM312.279 258.804C312.934 258.861 313.412 259.099 313.713 259.517C314.015 259.929 314.135 260.479 314.075 261.165C314.066 261.271 314.056 261.351 314.046 261.404L310.71 261.112C310.736 261.495 310.866 261.809 311.102 262.055C311.343 262.301 311.653 262.441 312.031 262.474C312.281 262.496 312.516 262.471 312.737 262.399C312.963 262.328 313.163 262.217 313.337 262.066L313.707 262.524C313.48 262.73 313.215 262.881 312.911 262.977C312.608 263.074 312.278 263.107 311.922 263.076C311.507 263.039 311.144 262.919 310.835 262.715C310.532 262.506 310.304 262.232 310.151 261.891C310.004 261.551 309.949 261.174 309.985 260.759C310.021 260.344 310.141 259.984 310.345 259.68C310.554 259.372 310.826 259.141 311.161 258.988C311.497 258.83 311.87 258.768 312.279 258.804ZM313.434 260.771C313.446 260.386 313.345 260.074 313.13 259.836C312.915 259.592 312.617 259.453 312.233 259.419C311.861 259.387 311.54 259.471 311.27 259.673C311.006 259.875 310.833 260.163 310.752 260.537L313.434 260.771ZM317.626 259.272C318.02 259.306 318.363 259.428 318.656 259.636C318.949 259.843 319.166 260.117 319.308 260.457C319.45 260.796 319.502 261.176 319.466 261.596C319.429 262.011 319.312 262.374 319.113 262.683C318.92 262.988 318.662 263.218 318.337 263.372C318.018 263.521 317.662 263.578 317.268 263.544C316.912 263.512 316.605 263.41 316.346 263.238C316.088 263.065 315.894 262.833 315.763 262.543L315.555 264.93L314.812 264.865L315.317 259.094L316.06 259.159L315.986 259.997C316.165 259.734 316.394 259.539 316.673 259.414C316.957 259.289 317.275 259.241 317.626 259.272ZM317.165 262.883C317.437 262.907 317.684 262.864 317.908 262.755C318.138 262.646 318.321 262.483 318.458 262.264C318.6 262.046 318.684 261.793 318.709 261.506C318.734 261.224 318.695 260.963 318.593 260.724C318.49 260.484 318.338 260.291 318.137 260.145C317.935 259.999 317.699 259.914 317.427 259.89C317.156 259.866 316.906 259.909 316.676 260.017C316.452 260.126 316.269 260.29 316.127 260.508C315.984 260.726 315.901 260.976 315.876 261.258C315.85 261.551 315.889 261.817 315.991 262.056C316.094 262.291 316.246 262.481 316.448 262.627C316.655 262.774 316.894 262.859 317.165 262.883Z" fill="#12141D"/>
</g>
<path d="M148.216 111.611L145.787 113.868L150.204 114.263L148.216 111.611Z" stroke="#4AB940" stroke-width="3.32396" stroke-linecap="round" stroke-linejoin="round"/>
<rect width="1.62716" height="0.976293" transform="matrix(0.996214 0.0869447 -0.0873673 0.996175 147.261 112.238)" fill="#4AB940"/>
<path opacity="0.6" d="M107.498 86.8989L108.515 86.9879L109.796 90.1227L111.588 87.2567L112.606 87.3458L112.199 92.0017L111.381 91.9301L111.673 88.5912L109.972 91.3244L109.4 91.2743L108.194 88.2868L107.902 91.6258L107.09 91.5548L107.498 86.8989ZM115.182 88.6502C115.55 88.6824 115.867 88.7861 116.134 88.9613C116.404 89.1369 116.605 89.369 116.736 89.6575C116.872 89.9419 116.925 90.2615 116.894 90.6163C116.862 90.9754 116.755 91.2855 116.571 91.5465C116.392 91.8078 116.154 92.0014 115.857 92.1274C115.564 92.2537 115.234 92.3008 114.866 92.2686C114.493 92.236 114.172 92.1319 113.901 91.9563C113.631 91.7807 113.427 91.5485 113.292 91.2596C113.161 90.9711 113.111 90.6472 113.142 90.2881C113.173 89.9333 113.278 89.6275 113.457 89.3706C113.641 89.1096 113.881 88.9162 114.178 88.7903C114.475 88.6643 114.81 88.6177 115.182 88.6502ZM115.118 89.3885C114.816 89.3622 114.564 89.4406 114.36 89.6238C114.156 89.8071 114.04 90.0583 114.012 90.3776C113.985 90.6969 114.055 90.9644 114.224 91.1803C114.393 91.3961 114.628 91.5172 114.929 91.5436C115.222 91.5692 115.47 91.4904 115.674 91.3071C115.877 91.1239 115.993 90.8726 116.021 90.5533C116.049 90.2341 115.979 89.9665 115.81 89.7507C115.641 89.5349 115.41 89.4141 115.118 89.3885ZM119.945 89.0602C120.353 89.0959 120.663 89.2482 120.877 89.5171C121.09 89.7815 121.179 90.1243 121.142 90.5456L120.948 92.7671L120.076 92.6909L120.248 90.7221C120.27 90.4738 120.216 90.2725 120.087 90.1182C119.958 89.9594 119.771 89.8694 119.527 89.8481C119.239 89.8273 119.002 89.9048 118.817 90.0808C118.636 90.2571 118.533 90.4938 118.507 90.7909L118.354 92.5402L117.489 92.4645L117.8 88.9061L118.665 88.9817L118.607 89.6469C118.891 89.2115 119.337 89.0159 119.945 89.0602ZM124.02 92.8148C123.721 92.9629 123.416 93.0233 123.106 92.9962C122.8 92.9694 122.557 92.8588 122.378 92.6644C122.198 92.4655 122.124 92.1909 122.155 91.8406L122.308 90.0847L121.809 90.041L121.858 89.4086L122.364 89.4528L122.449 88.475L123.307 88.5501L123.222 89.5278L124.239 89.6169L124.184 90.2488L123.166 90.1597L123.026 91.7627C123.012 91.9268 123.033 92.047 123.088 92.1234C123.145 92.1953 123.235 92.2367 123.359 92.2476C123.492 92.2592 123.665 92.2252 123.877 92.1455L124.02 92.8148ZM127.175 89.6928C127.583 89.7285 127.894 89.8807 128.107 90.1496C128.321 90.4141 128.409 90.7569 128.372 91.1782L128.178 93.3997L127.307 93.3235L127.479 91.3547C127.501 91.1064 127.447 90.9051 127.317 90.7508C127.188 90.592 127.002 90.502 126.758 90.4806C126.469 90.4598 126.232 90.5374 126.047 90.7134C125.862 90.8893 125.756 91.1258 125.73 91.4229L125.577 93.1722L124.713 93.0965L125.144 88.1612L126.009 88.2369L125.829 90.2922C126.114 89.8479 126.562 89.6481 127.175 89.6928ZM129.613 88.5522L130.478 88.6279L130.046 93.5632L129.181 93.4875L129.613 88.5522ZM132.639 94.2391C132.503 94.5221 132.324 94.7276 132.103 94.8557C131.886 94.9886 131.635 95.0427 131.352 95.0178C131.179 95.0027 131.023 94.9623 130.886 94.8967C130.753 94.8359 130.623 94.744 130.495 94.6212L130.925 93.9953C131.004 94.0647 131.077 94.1158 131.146 94.1487C131.214 94.1859 131.288 94.208 131.368 94.215C131.603 94.2356 131.787 94.131 131.918 93.9012L132.045 93.6777L130.881 90.0505L131.779 90.1291L132.564 92.8049L133.715 90.2984L134.586 90.3747L132.639 94.2391ZM138.753 89.6334C139.338 89.6846 139.779 89.8638 140.073 90.1711C140.373 90.4788 140.5 90.8876 140.455 91.3975C140.409 91.9296 140.211 92.3301 139.861 92.5988C139.516 92.8636 139.051 92.9703 138.466 92.9191L137.448 92.8301L137.328 94.2003L136.437 94.1223L136.844 89.4663L138.753 89.6334ZM138.488 92.1302C138.825 92.1597 139.088 92.109 139.279 91.9782C139.473 91.8478 139.583 91.6384 139.608 91.3502C139.633 91.0664 139.561 90.8456 139.391 90.6878C139.226 90.5304 138.975 90.437 138.638 90.4075L137.667 90.3225L137.517 92.0452L138.488 92.1302ZM142.008 91.7143C142.148 91.4942 142.325 91.3332 142.54 91.2313C142.759 91.1254 143.006 91.0823 143.281 91.1019L143.208 91.94C142.842 91.8856 142.54 91.9463 142.301 92.122C142.067 92.2936 141.935 92.5435 141.907 92.8717L141.757 94.5877L140.892 94.5121L141.203 90.9536L142.068 91.0292L142.008 91.7143ZM145.445 91.2978C145.813 91.33 146.13 91.4337 146.396 91.609C146.667 91.7845 146.867 92.0166 146.999 92.3051C147.135 92.5895 147.187 92.9091 147.156 93.2639C147.125 93.6231 147.017 93.9331 146.833 94.1941C146.654 94.4554 146.416 94.6491 146.119 94.775C145.826 94.9013 145.496 94.9484 145.128 94.9162C144.756 94.8836 144.434 94.7795 144.163 94.6039C143.893 94.4283 143.69 94.1961 143.554 93.9072C143.423 93.6187 143.373 93.2949 143.405 92.9357C143.436 92.5809 143.541 92.2751 143.719 92.0182C143.903 91.7573 144.143 91.5638 144.44 91.4379C144.737 91.3119 145.072 91.2653 145.445 91.2978ZM145.38 92.0361C145.079 92.0098 144.826 92.0882 144.622 92.2714C144.419 92.4547 144.303 92.7059 144.275 93.0252C144.247 93.3445 144.317 93.612 144.486 93.8279C144.655 94.0437 144.89 94.1648 145.192 94.1912C145.484 94.2168 145.732 94.138 145.936 93.9547C146.14 93.7715 146.256 93.5202 146.283 93.201C146.311 92.8817 146.241 92.6141 146.072 92.3983C145.903 92.1825 145.673 92.0618 145.38 92.0361ZM146.946 95.5846C147.045 95.629 147.145 95.6578 147.246 95.6712C147.392 95.6884 147.508 95.6494 147.592 95.554C147.68 95.4634 147.733 95.3228 147.749 95.1321L148.062 91.5537L148.927 91.6293L148.602 95.3408C148.57 95.7088 148.445 95.9861 148.228 96.1726C148.015 96.364 147.733 96.4443 147.383 96.4137C147.139 96.3923 146.912 96.3278 146.703 96.2201L146.946 95.5846ZM148.622 90.0611C148.764 90.0735 148.877 90.1326 148.962 90.2383C149.046 90.344 149.082 90.4722 149.069 90.623C149.056 90.7693 148.999 90.8872 148.897 90.9766C148.795 91.066 148.674 91.1045 148.532 91.0921C148.39 91.0797 148.277 91.0206 148.192 90.9149C148.108 90.8092 148.072 90.6832 148.084 90.5369C148.098 90.3861 148.155 90.266 148.257 90.1766C148.358 90.0872 148.48 90.0487 148.622 90.0611ZM151.438 91.8222C152.006 91.8719 152.417 92.071 152.673 92.4195C152.933 92.7684 153.037 93.2355 152.986 93.8208C152.976 93.9361 152.966 94.0224 152.957 94.0797L150.329 93.8498C150.365 94.1076 150.465 94.3174 150.629 94.4793C150.799 94.6371 151.014 94.7274 151.276 94.7503C151.458 94.7662 151.634 94.7481 151.803 94.6959C151.978 94.6397 152.133 94.5527 152.269 94.435L152.692 94.9613C152.497 95.1409 152.267 95.2726 152 95.3566C151.738 95.4409 151.452 95.4695 151.142 95.4423C150.778 95.4105 150.463 95.307 150.197 95.1318C149.935 94.957 149.741 94.7277 149.614 94.444C149.487 94.1559 149.439 93.8345 149.47 93.4798C149.501 93.125 149.604 92.8168 149.779 92.555C149.958 92.2937 150.192 92.0997 150.48 91.973C150.769 91.8418 151.088 91.7916 151.438 91.8222ZM152.222 93.4323C152.236 93.1699 152.168 92.954 152.018 92.7844C151.867 92.6149 151.657 92.5183 151.386 92.4946C151.133 92.4725 150.914 92.5315 150.727 92.6715C150.546 92.8075 150.423 93.0068 150.36 93.2694L152.222 93.4323ZM156.238 93.4017C156.022 93.1191 155.723 92.9611 155.341 92.9278C155.053 92.9025 154.81 92.9795 154.611 93.1587C154.416 93.3383 154.306 93.5833 154.278 93.8937C154.25 94.213 154.317 94.4779 154.477 94.6885C154.642 94.8996 154.868 95.0177 155.156 95.0429C155.582 95.0801 155.914 94.9684 156.151 94.7076L156.651 95.2004C156.471 95.417 156.245 95.576 155.972 95.6772C155.7 95.7785 155.39 95.814 155.045 95.7838C154.694 95.7531 154.388 95.6504 154.127 95.4756C153.869 95.3011 153.677 95.0721 153.55 94.7884C153.423 94.5003 153.375 94.1789 153.406 93.8241C153.438 93.465 153.541 93.1545 153.716 92.8928C153.895 92.6314 154.127 92.4372 154.41 92.3101C154.698 92.1834 155.02 92.1356 155.374 92.1666C155.698 92.1949 155.981 92.2778 156.224 92.4152C156.472 92.5485 156.666 92.7264 156.807 92.9488L156.238 93.4017ZM159.433 95.913C159.134 96.0611 158.829 96.1216 158.519 96.0944C158.213 96.0677 157.97 95.9571 157.791 95.7626C157.612 95.5638 157.537 95.2892 157.568 94.9389L157.722 93.1829L157.223 93.1393L157.271 92.5068L157.777 92.551L157.862 91.5733L158.72 91.6483L158.635 92.6261L159.652 92.7151L159.597 93.347L158.58 93.258L158.439 94.8609C158.425 95.025 158.446 95.1452 158.502 95.2216C158.558 95.2936 158.648 95.335 158.772 95.3458C158.905 95.3575 159.078 95.3234 159.291 95.2437L159.433 95.913ZM161.605 91.6326L162.563 91.7164L163.612 95.5012L165.316 91.9573L166.234 92.0376L163.964 96.5306L163.04 96.4497L161.605 91.6326ZM166.698 93.1841L167.563 93.2597L167.251 96.8182L166.387 96.7425L166.698 93.1841ZM167.257 91.6915C167.399 91.7039 167.513 91.763 167.597 91.8687C167.682 91.9744 167.717 92.1026 167.704 92.2534C167.691 92.3997 167.634 92.5176 167.533 92.607C167.431 92.6964 167.309 92.7349 167.167 92.7225C167.025 92.7101 166.912 92.651 166.828 92.5453C166.743 92.4396 166.707 92.3136 166.72 92.1673C166.733 92.0165 166.79 91.8964 166.892 91.807C166.994 91.7176 167.116 91.6791 167.257 91.6915ZM170.119 93.4566C170.687 93.5062 171.098 93.7053 171.354 94.0539C171.614 94.4028 171.718 94.8699 171.667 95.4552C171.657 95.5705 171.647 95.6568 171.637 95.714L169.01 95.4842C169.046 95.742 169.146 95.9518 169.31 96.1136C169.48 96.2714 169.695 96.3618 169.957 96.3847C170.139 96.4006 170.314 96.3825 170.484 96.3303C170.659 96.2741 170.814 96.1871 170.95 96.0694L171.373 96.5957C171.178 96.7753 170.948 96.907 170.681 96.9909C170.419 97.0752 170.133 97.1038 169.823 97.0767C169.459 97.0449 169.144 96.9413 168.878 96.7661C168.616 96.5913 168.422 96.3621 168.295 96.0784C168.168 95.7903 168.12 95.4689 168.151 95.1141C168.182 94.7594 168.285 94.4511 168.46 94.1894C168.639 93.9281 168.873 93.734 169.161 93.6073C169.449 93.4762 169.769 93.4259 170.119 93.4566ZM170.903 95.0667C170.917 94.8043 170.849 94.5883 170.698 94.4188C170.548 94.2492 170.338 94.1526 170.067 94.129C169.814 94.1068 169.595 94.1658 169.408 94.3059C169.226 94.4419 169.104 94.6412 169.041 94.9038L170.903 95.0667ZM171.9 93.6459L172.792 93.7173L173.429 96.4806L174.508 93.8674L175.38 93.9436L176.003 96.7058L177.089 94.0932L177.96 94.1694L176.359 97.615L175.474 97.5376L174.842 94.9556L173.778 97.3892L172.893 97.3118L171.9 93.6459ZM180.453 95.3593C180.289 95.2422 180.116 95.1467 179.935 95.0727C179.758 94.9992 179.592 94.9556 179.437 94.942C179.291 94.9292 179.171 94.9455 179.078 94.991C178.989 95.0324 178.94 95.1063 178.931 95.2127C178.921 95.3236 178.967 95.4147 179.068 95.4861C179.174 95.5535 179.341 95.6307 179.57 95.7177C179.812 95.8148 180.009 95.9081 180.162 95.9974C180.316 96.0823 180.444 96.203 180.546 96.3594C180.654 96.5118 180.697 96.7055 180.676 96.9405C180.646 97.2864 180.49 97.5408 180.207 97.7037C179.925 97.8667 179.582 97.9305 179.179 97.8952C178.904 97.8712 178.639 97.8056 178.385 97.6984C178.131 97.5869 177.92 97.4433 177.752 97.2678L178.105 96.6887C178.252 96.8401 178.433 96.9654 178.648 97.0646C178.863 97.1594 179.071 97.2155 179.27 97.233C179.43 97.247 179.558 97.2314 179.656 97.1863C179.759 97.1372 179.815 97.0573 179.825 96.9464C179.836 96.8222 179.788 96.7243 179.683 96.6525C179.577 96.5807 179.404 96.4963 179.162 96.3992C178.929 96.3073 178.74 96.2215 178.595 96.1418C178.45 96.0576 178.329 95.942 178.23 95.7948C178.131 95.6432 178.092 95.4544 178.112 95.2282C178.142 94.8779 178.292 94.6229 178.561 94.4632C178.834 94.2995 179.164 94.2345 179.55 94.2682C179.785 94.2888 180.012 94.3422 180.233 94.4285C180.457 94.5152 180.653 94.6262 180.82 94.7614L180.453 95.3593Z" fill="#12141D"/>
<path d="M105.99 102.574L110.029 102.927L109.202 112.382L107.068 112.195L107.737 104.55L105.832 104.384L105.99 102.574ZM111.536 103.059L118.952 103.708L118.818 105.234L114.396 112.836L112.141 112.639L116.405 105.281L113.285 105.008L113.155 106.331L111.264 106.165L111.536 103.059ZM126.196 112.072L126.04 113.855L118.935 113.234L119.064 111.761L122.878 108.461C123.221 108.173 123.495 107.889 123.701 107.607C123.917 107.318 124.035 107.06 124.055 106.835C124.081 106.538 123.984 106.298 123.764 106.116C123.554 105.925 123.246 105.812 122.841 105.776C122.436 105.741 121.994 105.807 121.517 105.974C121.039 106.14 120.569 106.39 120.104 106.721L119.406 105.054C120.73 104.235 122.031 103.882 123.31 103.994C123.94 104.049 124.489 104.201 124.957 104.451C125.426 104.691 125.78 105.008 126.018 105.401C126.256 105.785 126.354 106.22 126.312 106.706C126.27 107.183 126.069 107.665 125.709 108.151C125.349 108.636 124.855 109.151 124.226 109.695L121.86 111.693L126.196 112.072ZM134.256 112.777L134.1 114.56L126.995 113.939L127.124 112.466L130.938 109.166C131.28 108.878 131.555 108.594 131.761 108.313C131.977 108.023 132.095 107.766 132.114 107.54C132.14 107.243 132.043 107.003 131.823 106.821C131.613 106.63 131.306 106.517 130.9 106.481C130.495 106.446 130.054 106.512 129.576 106.679C129.099 106.846 128.628 107.095 128.164 107.426L127.466 105.759C128.789 104.94 130.091 104.587 131.369 104.699C132 104.754 132.549 104.906 133.017 105.156C133.486 105.396 133.839 105.713 134.077 106.106C134.316 106.49 134.414 106.925 134.371 107.411C134.33 107.888 134.129 108.37 133.769 108.856C133.409 109.341 132.914 109.856 132.286 110.4L129.92 112.398L134.256 112.777ZM135.274 105.136L139.313 105.489L138.485 114.944L136.351 114.757L137.02 107.112L135.115 106.946L135.274 105.136Z" fill="#12141D"/>
</g>
<defs>
<filter id="filter0_d_1_491" x="0.598572" y="0.64213" width="427.394" height="354.79" filterUnits="userSpaceOnUse" color-interpolation-filters="sRGB">
<feFlood flood-opacity="0" result="BackgroundImageFix"/>
<feColorMatrix in="SourceAlpha" type="matrix" values="0 0 0 0 0 0 0 0 0 0 0 0 0 0 0 0 0 0 127 0" result="hardAlpha"/>
<feOffset dy="4.93052"/>
<feGaussianBlur stdDeviation="36.9789"/>
<feComposite in2="hardAlpha" operator="out"/>
<feColorMatrix type="matrix" values="0 0 0 0 0 0 0 0 0 0 0 0 0 0 0 0 0 0 0.08 0"/>
<feBlend mode="normal" in2="BackgroundImageFix" result="effect1_dropShadow_1_491"/>
<feBlend mode="normal" in="SourceGraphic" in2="effect1_dropShadow_1_491" result="shape"/>
</filter>
</defs>
</svg>
